<svg width="140" height="22" viewBox="0 0 140 22" fill="none" xmlns="http://www.w3.org/2000/svg">
<rect width="22" height="22" rx="2" fill="#1677BD"/>
<path d="M10.9981 14.8853L15.4654 17.6001L14.2799 12.4835L18.2267 9.0409L13.0293 8.59693L10.9981 3.77148L8.96687 8.59693L3.76953 9.0409L7.71633 12.4835L6.53085 17.6001L10.9981 14.8853Z" fill="white"/>
<rect x="29.332" width="22" height="22" rx="2" fill="#1677BD"/>
<path d="M40.334 14.8853L44.8013 17.6001L43.6158 12.4835L47.5626 9.0409L42.3653 8.59693L40.334 3.77148L38.3028 8.59693L33.1055 9.0409L37.0523 12.4835L35.8668 17.6001L40.334 14.8853Z" fill="white"/>
<rect x="88" width="22" height="22" rx="2" fill="#9F9F9F"/>
<path d="M88 2C88 0.89543 88.8954 0 90 0H99V22H90C88.8954 22 88 21.1046 88 20V2Z" fill="#1677BD"/>
<path d="M98.9981 14.8853L103.465 17.6001L102.28 12.4835L106.227 9.0409L101.029 8.59693L98.9981 3.77148L96.9669 8.59693L91.7695 9.0409L95.7163 12.4835L94.5308 17.6001L98.9981 14.8853Z" fill="white"/>
<rect x="58.668" width="22" height="22" rx="2" fill="#1677BD"/>
<path d="M69.6661 14.8853L74.1333 17.6001L72.9478 12.4835L76.8946 9.0409L71.6973 8.59693L69.6661 3.77148L67.6348 8.59693L62.4375 9.0409L66.3843 12.4835L65.1988 17.6001L69.6661 14.8853Z" fill="white"/>
<rect x="117.332" width="22" height="22" rx="2" fill="#9F9F9F"/>
<path d="M128.33 14.8853L132.797 17.6001L131.612 12.4835L135.559 9.0409L130.361 8.59693L128.33 3.77148L126.299 8.59693L121.102 9.0409L125.048 12.4835L123.863 17.6001L128.33 14.8853Z" fill="white"/>
</svg>
