<svg width="30" height="29" viewBox="0 0 30 29" fill="none" xmlns="http://www.w3.org/2000/svg">
<path d="M16.5378 0.00178401C17.5958 -0.00227617 18.6539 0.00835793 19.7117 0.033683L19.993 0.0438326C20.3178 0.0554322 20.6382 0.0699317 21.0254 0.0873311C22.5681 0.159829 23.6208 0.403421 24.5444 0.761558C25.5014 1.12985 26.3075 1.62863 27.1137 2.4348C27.8508 3.15921 28.4213 4.03547 28.7855 5.00266C29.1436 5.92628 29.3872 6.9804 29.4597 8.52314C29.4771 8.90883 29.4916 9.23072 29.5032 9.55551L29.5119 9.8368C29.5377 10.8941 29.5488 11.9517 29.5453 13.0093L29.5467 14.091V15.9904C29.5503 17.0485 29.5392 18.1066 29.5134 19.1643L29.5047 19.4456C29.4931 19.7704 29.4786 20.0908 29.4612 20.478C29.3887 22.0207 29.1422 23.0734 28.7855 23.997C28.4225 24.9652 27.8519 25.8422 27.1137 26.5663C26.3887 27.3034 25.512 27.8738 24.5444 28.2381C23.6208 28.5963 22.5681 28.8399 21.0254 28.9123C20.6382 28.9297 20.3178 28.9442 19.993 28.9558L19.7117 28.9645C18.6539 28.9903 17.5958 29.0014 16.5378 28.9979L15.4561 28.9993H13.5581C12.5 29.0029 11.442 28.9918 10.3842 28.966L10.1029 28.9573C9.75868 28.9448 9.41455 28.9303 9.07052 28.9138C7.52777 28.8413 6.47511 28.5948 5.55004 28.2381C4.58247 27.8747 3.70605 27.3041 2.98218 26.5663C2.24422 25.8418 1.6732 24.9649 1.30894 23.997C0.950798 23.0734 0.707206 22.0207 0.634709 20.478C0.61856 20.1339 0.604061 19.7898 0.59121 19.4456L0.583961 19.1643C0.557229 18.1066 0.545144 17.0485 0.547712 15.9904V13.0093C0.543665 11.9517 0.554299 10.8941 0.579611 9.8368L0.58976 9.55551C0.60136 9.23072 0.615859 8.90883 0.633259 8.52314C0.705756 6.97895 0.949348 5.92773 1.30749 5.00266C1.67196 4.035 2.2441 3.15897 2.98363 2.43625C3.707 1.69787 4.58287 1.12633 5.55004 0.761558C6.47511 0.403421 7.52632 0.159829 9.07052 0.0873311L10.1029 0.0438326L10.3842 0.0365831C11.4415 0.00986456 12.4991 -0.00221966 13.5567 0.000334167L16.5378 0.00178401ZM15.0472 7.25154C14.0866 7.23795 13.1329 7.41542 12.2415 7.77362C11.3501 8.13182 10.5388 8.66361 9.85472 9.3381C9.17063 10.0126 8.62742 10.8163 8.25665 11.7025C7.88587 12.5888 7.69494 13.5399 7.69494 14.5006C7.69494 15.4612 7.88587 16.4123 8.25665 17.2986C8.62742 18.1848 9.17063 18.9886 9.85472 19.663C10.5388 20.3375 11.3501 20.8693 12.2415 21.2275C13.1329 21.5857 14.0866 21.7632 15.0472 21.7496C16.97 21.7496 18.814 20.9858 20.1736 19.6262C21.5332 18.2666 22.297 16.4226 22.297 14.4998C22.297 12.5771 21.5332 10.7331 20.1736 9.37349C18.814 8.0139 16.97 7.25154 15.0472 7.25154ZM15.0472 10.1514C15.625 10.1408 16.1992 10.2454 16.7361 10.4591C17.2731 10.6729 17.762 10.9915 18.1744 11.3963C18.5869 11.8011 18.9145 12.2841 19.1382 12.8169C19.3619 13.3498 19.4771 13.9219 19.4772 14.4998C19.4773 15.0777 19.3622 15.6499 19.1387 16.1828C18.9152 16.7158 18.5878 17.1988 18.1755 17.6038C17.7632 18.0088 17.2743 18.3275 16.7375 18.5414C16.2006 18.7554 15.6265 18.8601 15.0487 18.8497C13.895 18.8497 12.7886 18.3914 11.9729 17.5757C11.1571 16.7599 10.6988 15.6535 10.6988 14.4998C10.6988 13.3462 11.1571 12.2398 11.9729 11.424C12.7886 10.6083 13.895 10.15 15.0487 10.15L15.0472 10.1514ZM22.6595 5.07661C22.1917 5.09533 21.7493 5.29432 21.425 5.6319C21.1006 5.96948 20.9195 6.41946 20.9195 6.8876C20.9195 7.35574 21.1006 7.80572 21.425 8.1433C21.7493 8.48088 22.1917 8.67987 22.6595 8.69859C23.1401 8.69859 23.6012 8.50764 23.941 8.16774C24.2809 7.82784 24.4719 7.36684 24.4719 6.88615C24.4719 6.40546 24.2809 5.94446 23.941 5.60456C23.6012 5.26466 23.1401 5.07371 22.6595 5.07371V5.07661Z" fill="black"/>
</svg>
