<svg width="549" height="128" viewBox="0 0 549 128" fill="none" xmlns="http://www.w3.org/2000/svg">
<path d="M2.94678 10.2476L1.71826 9.93213L2.32422 3.91406H8.5249V5.3335H3.62744L3.26221 8.62061C3.48356 8.49333 3.76302 8.37435 4.10059 8.26367C4.44368 8.15299 4.83659 8.09766 5.2793 8.09766C5.83822 8.09766 6.33903 8.1945 6.78174 8.38818C7.22445 8.57633 7.60075 8.84749 7.91064 9.20166C8.22607 9.55583 8.4668 9.98193 8.63281 10.48C8.79883 10.978 8.88184 11.5342 8.88184 12.1484C8.88184 12.7295 8.8016 13.2635 8.64111 13.7505C8.48617 14.2375 8.25098 14.6636 7.93555 15.0288C7.62012 15.3885 7.22168 15.668 6.74023 15.8672C6.26432 16.0664 5.70264 16.166 5.05518 16.166C4.5682 16.166 4.10612 16.0996 3.66895 15.9668C3.2373 15.8285 2.84993 15.6209 2.50684 15.3442C2.16927 15.062 1.89258 14.7134 1.67676 14.2983C1.46647 13.8778 1.33366 13.3853 1.27832 12.8208H2.73926C2.80566 13.2746 2.93848 13.6564 3.1377 13.9663C3.33691 14.2762 3.59701 14.5114 3.91797 14.6719C4.24447 14.8268 4.62354 14.9043 5.05518 14.9043C5.42041 14.9043 5.74414 14.8407 6.02637 14.7134C6.30859 14.5861 6.54655 14.4035 6.74023 14.1655C6.93392 13.9276 7.08057 13.6398 7.18018 13.3022C7.28532 12.9647 7.33789 12.5856 7.33789 12.165C7.33789 11.7832 7.28532 11.429 7.18018 11.1025C7.07503 10.776 6.91732 10.491 6.70703 10.2476C6.50228 10.0041 6.25049 9.81592 5.95166 9.68311C5.65283 9.54476 5.30973 9.47559 4.92236 9.47559C4.40771 9.47559 4.01758 9.54476 3.75195 9.68311C3.49186 9.82145 3.22347 10.0096 2.94678 10.2476ZM20.1792 13.6177C20.1792 13.3963 20.1294 13.1916 20.0298 13.0034C19.9357 12.8097 19.7393 12.6354 19.4404 12.4805C19.1471 12.32 18.7044 12.1816 18.1123 12.0654C17.6143 11.9603 17.1632 11.8358 16.7593 11.6919C16.3608 11.548 16.0205 11.3737 15.7383 11.1689C15.4616 10.9642 15.2485 10.7235 15.0991 10.4468C14.9497 10.1701 14.875 9.84635 14.875 9.47559C14.875 9.12142 14.9525 8.78662 15.1074 8.47119C15.2679 8.15576 15.492 7.8763 15.7798 7.63281C16.0731 7.38932 16.4245 7.1984 16.834 7.06006C17.2435 6.92171 17.7 6.85254 18.2036 6.85254C18.923 6.85254 19.5373 6.97982 20.0464 7.23438C20.5555 7.48893 20.9456 7.82926 21.2168 8.25537C21.488 8.67594 21.6235 9.14355 21.6235 9.6582H20.0879C20.0879 9.40918 20.0132 9.16846 19.8638 8.93604C19.7199 8.69808 19.5068 8.50163 19.2246 8.34668C18.9479 8.19173 18.6076 8.11426 18.2036 8.11426C17.7775 8.11426 17.4316 8.18066 17.166 8.31348C16.9059 8.44076 16.715 8.604 16.5933 8.80322C16.4771 9.00244 16.4189 9.21273 16.4189 9.43408C16.4189 9.6001 16.4466 9.74951 16.502 9.88232C16.5628 10.0096 16.668 10.1286 16.8174 10.2393C16.9668 10.3444 17.1771 10.444 17.4482 10.5381C17.7194 10.6322 18.0653 10.7262 18.4858 10.8203C19.2218 10.9863 19.8278 11.1855 20.3037 11.418C20.7796 11.6504 21.1338 11.9354 21.3662 12.2729C21.5986 12.6105 21.7148 13.02 21.7148 13.5015C21.7148 13.8944 21.6318 14.2541 21.4658 14.5806C21.3053 14.9071 21.0701 15.1893 20.7603 15.4272C20.4559 15.6597 20.0907 15.8423 19.6646 15.9751C19.244 16.1024 18.7708 16.166 18.2451 16.166C17.4538 16.166 16.7842 16.0249 16.2363 15.7427C15.6885 15.4604 15.2734 15.0952 14.9912 14.647C14.709 14.1987 14.5679 13.7256 14.5679 13.2275H16.1118C16.134 13.6481 16.2557 13.9829 16.4771 14.2319C16.6984 14.4754 16.9696 14.6497 17.2905 14.7549C17.6115 14.8545 17.9297 14.9043 18.2451 14.9043C18.6657 14.9043 19.0171 14.849 19.2993 14.7383C19.5871 14.6276 19.8057 14.4754 19.9551 14.2817C20.1045 14.0881 20.1792 13.8667 20.1792 13.6177ZM27.4922 7.01855V8.19727H22.6362V7.01855H27.4922ZM24.2798 4.83545H25.8154V13.7754C25.8154 14.0798 25.8625 14.3094 25.9565 14.4644C26.0506 14.6193 26.1724 14.7217 26.3218 14.7715C26.4712 14.8213 26.6317 14.8462 26.8032 14.8462C26.9305 14.8462 27.0633 14.8351 27.2017 14.813C27.3455 14.7853 27.4535 14.7632 27.5254 14.7466L27.5337 16C27.4119 16.0387 27.2515 16.0747 27.0522 16.1079C26.8586 16.1466 26.6234 16.166 26.3467 16.166C25.9704 16.166 25.6245 16.0913 25.3091 15.9419C24.9937 15.7925 24.7419 15.5435 24.5537 15.1948C24.3711 14.8407 24.2798 14.3647 24.2798 13.7671V4.83545ZM34.5894 14.4644V9.84082C34.5894 9.48665 34.5174 9.17952 34.3735 8.91943C34.2352 8.65381 34.0249 8.44906 33.7427 8.30518C33.4604 8.1613 33.1118 8.08936 32.6968 8.08936C32.3094 8.08936 31.9691 8.15576 31.6758 8.28857C31.388 8.42139 31.1611 8.5957 30.9951 8.81152C30.8346 9.02734 30.7544 9.25977 30.7544 9.50879H29.2188C29.2188 9.18783 29.3018 8.86963 29.4678 8.5542C29.6338 8.23877 29.8717 7.95378 30.1816 7.69922C30.4971 7.43913 30.8734 7.23438 31.3105 7.08496C31.7533 6.93001 32.2458 6.85254 32.7881 6.85254C33.4411 6.85254 34.0166 6.96322 34.5146 7.18457C35.0182 7.40592 35.4111 7.74072 35.6934 8.18896C35.9811 8.63167 36.125 9.18783 36.125 9.85742V14.041C36.125 14.3398 36.1499 14.658 36.1997 14.9956C36.255 15.3332 36.3353 15.6237 36.4404 15.8672V16H34.8384C34.7609 15.8229 34.7 15.5877 34.6558 15.2944C34.6115 14.9956 34.5894 14.7189 34.5894 14.4644ZM34.855 10.5547L34.8716 11.6338H33.3193C32.8822 11.6338 32.492 11.6698 32.1489 11.7417C31.8058 11.8081 31.5181 11.9105 31.2856 12.0488C31.0532 12.1872 30.8761 12.3615 30.7544 12.5718C30.6326 12.7765 30.5718 13.0173 30.5718 13.2939C30.5718 13.5762 30.6354 13.8335 30.7627 14.0659C30.89 14.2983 31.0809 14.4837 31.3354 14.6221C31.5955 14.7549 31.9137 14.8213 32.29 14.8213C32.7604 14.8213 33.1755 14.7217 33.5352 14.5225C33.8949 14.3232 34.1799 14.0798 34.3901 13.792C34.606 13.5042 34.7222 13.2248 34.7388 12.9536L35.3945 13.6924C35.3558 13.9248 35.2507 14.1821 35.0791 14.4644C34.9076 14.7466 34.6779 15.0177 34.3901 15.2778C34.1079 15.5324 33.7703 15.7454 33.3774 15.917C32.9901 16.083 32.5529 16.166 32.0659 16.166C31.4572 16.166 30.9232 16.047 30.4639 15.8091C30.0101 15.5711 29.6559 15.2529 29.4014 14.8545C29.1523 14.4505 29.0278 13.9995 29.0278 13.5015C29.0278 13.02 29.1219 12.5967 29.3101 12.2314C29.4982 11.8607 29.7694 11.5535 30.1235 11.3101C30.4777 11.061 30.9038 10.8729 31.4019 10.7456C31.8999 10.6183 32.4561 10.5547 33.0703 10.5547H34.855ZM40.0762 8.42969V16H38.5405V7.01855H40.0347L40.0762 8.42969ZM42.8818 6.96875L42.8735 8.39648C42.7463 8.36882 42.6245 8.35221 42.5083 8.34668C42.3976 8.33561 42.2703 8.33008 42.1265 8.33008C41.7723 8.33008 41.4596 8.38542 41.1885 8.49609C40.9173 8.60677 40.6877 8.76172 40.4995 8.96094C40.3114 9.16016 40.1619 9.39811 40.0513 9.6748C39.9461 9.94596 39.877 10.2448 39.8438 10.5713L39.4121 10.8203C39.4121 10.278 39.4647 9.76888 39.5698 9.29297C39.6805 8.81706 39.8493 8.39648 40.0762 8.03125C40.3031 7.66048 40.5908 7.37272 40.9395 7.16797C41.2936 6.95768 41.7142 6.85254 42.2012 6.85254C42.3118 6.85254 42.4391 6.86637 42.583 6.89404C42.7269 6.91618 42.8265 6.94108 42.8818 6.96875ZM49.5308 13.6177C49.5308 13.3963 49.481 13.1916 49.3813 13.0034C49.2873 12.8097 49.0908 12.6354 48.792 12.4805C48.4987 12.32 48.056 12.1816 47.4639 12.0654C46.9658 11.9603 46.5148 11.8358 46.1108 11.6919C45.7124 11.548 45.3721 11.3737 45.0898 11.1689C44.8132 10.9642 44.6001 10.7235 44.4507 10.4468C44.3013 10.1701 44.2266 9.84635 44.2266 9.47559C44.2266 9.12142 44.304 8.78662 44.459 8.47119C44.6195 8.15576 44.8436 7.8763 45.1313 7.63281C45.4246 7.38932 45.776 7.1984 46.1855 7.06006C46.5951 6.92171 47.0516 6.85254 47.5552 6.85254C48.2746 6.85254 48.8888 6.97982 49.3979 7.23438C49.9071 7.48893 50.2972 7.82926 50.5684 8.25537C50.8395 8.67594 50.9751 9.14355 50.9751 9.6582H49.4395C49.4395 9.40918 49.3647 9.16846 49.2153 8.93604C49.0715 8.69808 48.8584 8.50163 48.5762 8.34668C48.2995 8.19173 47.9591 8.11426 47.5552 8.11426C47.1291 8.11426 46.7832 8.18066 46.5176 8.31348C46.2575 8.44076 46.0666 8.604 45.9448 8.80322C45.8286 9.00244 45.7705 9.21273 45.7705 9.43408C45.7705 9.6001 45.7982 9.74951 45.8535 9.88232C45.9144 10.0096 46.0195 10.1286 46.1689 10.2393C46.3184 10.3444 46.5286 10.444 46.7998 10.5381C47.071 10.6322 47.4168 10.7262 47.8374 10.8203C48.5734 10.9863 49.1794 11.1855 49.6553 11.418C50.1312 11.6504 50.4854 11.9354 50.7178 12.2729C50.9502 12.6105 51.0664 13.02 51.0664 13.5015C51.0664 13.8944 50.9834 14.2541 50.8174 14.5806C50.6569 14.9071 50.4217 15.1893 50.1118 15.4272C49.8075 15.6597 49.4422 15.8423 49.0161 15.9751C48.5955 16.1024 48.1224 16.166 47.5967 16.166C46.8053 16.166 46.1357 16.0249 45.5879 15.7427C45.04 15.4604 44.625 15.0952 44.3428 14.647C44.0605 14.1987 43.9194 13.7256 43.9194 13.2275H45.4634C45.4855 13.6481 45.6073 13.9829 45.8286 14.2319C46.05 14.4754 46.3211 14.6497 46.6421 14.7549C46.9631 14.8545 47.2812 14.9043 47.5967 14.9043C48.0173 14.9043 48.3687 14.849 48.6509 14.7383C48.9386 14.6276 49.1572 14.4754 49.3066 14.2817C49.4561 14.0881 49.5308 13.8667 49.5308 13.6177Z" fill="#484848"/>
<path d="M8.59131 35.9941V37.8369C8.59131 38.8275 8.50277 39.6631 8.32568 40.3438C8.1486 41.0244 7.89404 41.5723 7.56201 41.9873C7.22998 42.4023 6.82878 42.7039 6.3584 42.8921C5.89355 43.0747 5.36784 43.166 4.78125 43.166C4.31641 43.166 3.88753 43.1079 3.49463 42.9917C3.10173 42.8755 2.74756 42.6901 2.43213 42.4355C2.12223 42.1755 1.85661 41.8379 1.63525 41.4229C1.4139 41.0078 1.24512 40.5042 1.12891 39.9121C1.0127 39.32 0.95459 38.6283 0.95459 37.8369V35.9941C0.95459 35.0036 1.04313 34.1735 1.22021 33.5039C1.40283 32.8343 1.66016 32.2975 1.99219 31.8936C2.32422 31.484 2.72266 31.1908 3.1875 31.0137C3.65788 30.8366 4.18359 30.748 4.76465 30.748C5.23503 30.748 5.66667 30.8062 6.05957 30.9224C6.45801 31.033 6.81217 31.2129 7.12207 31.4619C7.43197 31.7054 7.69482 32.0319 7.91064 32.4414C8.132 32.8454 8.30078 33.3407 8.41699 33.9272C8.5332 34.5138 8.59131 35.2028 8.59131 35.9941ZM7.04736 38.0859V35.7368C7.04736 35.1945 7.01416 34.7186 6.94775 34.3091C6.88688 33.894 6.79557 33.5399 6.67383 33.2466C6.55208 32.9533 6.39714 32.7153 6.20898 32.5327C6.02637 32.3501 5.81331 32.2173 5.56982 32.1343C5.33187 32.0457 5.06348 32.0015 4.76465 32.0015C4.39941 32.0015 4.07568 32.0706 3.79346 32.209C3.51123 32.3418 3.27327 32.5549 3.07959 32.8481C2.89144 33.1414 2.74756 33.526 2.64795 34.002C2.54834 34.4779 2.49854 35.0562 2.49854 35.7368V38.0859C2.49854 38.6283 2.52897 39.1069 2.58984 39.522C2.65625 39.937 2.75309 40.2967 2.88037 40.6011C3.00765 40.8999 3.1626 41.1462 3.34521 41.3398C3.52783 41.5335 3.73812 41.6774 3.97607 41.7715C4.21956 41.86 4.48796 41.9043 4.78125 41.9043C5.15755 41.9043 5.48682 41.8324 5.76904 41.6885C6.05127 41.5446 6.28646 41.3205 6.47461 41.0161C6.66829 40.7062 6.81217 40.3105 6.90625 39.8291C7.00033 39.3421 7.04736 38.7611 7.04736 38.0859ZM20.1792 40.6177C20.1792 40.3963 20.1294 40.1916 20.0298 40.0034C19.9357 39.8097 19.7393 39.6354 19.4404 39.4805C19.1471 39.32 18.7044 39.1816 18.1123 39.0654C17.6143 38.9603 17.1632 38.8358 16.7593 38.6919C16.3608 38.548 16.0205 38.3737 15.7383 38.1689C15.4616 37.9642 15.2485 37.7235 15.0991 37.4468C14.9497 37.1701 14.875 36.8464 14.875 36.4756C14.875 36.1214 14.9525 35.7866 15.1074 35.4712C15.2679 35.1558 15.492 34.8763 15.7798 34.6328C16.0731 34.3893 16.4245 34.1984 16.834 34.0601C17.2435 33.9217 17.7 33.8525 18.2036 33.8525C18.923 33.8525 19.5373 33.9798 20.0464 34.2344C20.5555 34.4889 20.9456 34.8293 21.2168 35.2554C21.488 35.6759 21.6235 36.1436 21.6235 36.6582H20.0879C20.0879 36.4092 20.0132 36.1685 19.8638 35.936C19.7199 35.6981 19.5068 35.5016 19.2246 35.3467C18.9479 35.1917 18.6076 35.1143 18.2036 35.1143C17.7775 35.1143 17.4316 35.1807 17.166 35.3135C16.9059 35.4408 16.715 35.604 16.5933 35.8032C16.4771 36.0024 16.4189 36.2127 16.4189 36.4341C16.4189 36.6001 16.4466 36.7495 16.502 36.8823C16.5628 37.0096 16.668 37.1286 16.8174 37.2393C16.9668 37.3444 17.1771 37.444 17.4482 37.5381C17.7194 37.6322 18.0653 37.7262 18.4858 37.8203C19.2218 37.9863 19.8278 38.1855 20.3037 38.418C20.7796 38.6504 21.1338 38.9354 21.3662 39.2729C21.5986 39.6105 21.7148 40.02 21.7148 40.5015C21.7148 40.8944 21.6318 41.2541 21.4658 41.5806C21.3053 41.9071 21.0701 42.1893 20.7603 42.4272C20.4559 42.6597 20.0907 42.8423 19.6646 42.9751C19.244 43.1024 18.7708 43.166 18.2451 43.166C17.4538 43.166 16.7842 43.0249 16.2363 42.7427C15.6885 42.4604 15.2734 42.0952 14.9912 41.647C14.709 41.1987 14.5679 40.7256 14.5679 40.2275H16.1118C16.134 40.6481 16.2557 40.9829 16.4771 41.2319C16.6984 41.4754 16.9696 41.6497 17.2905 41.7549C17.6115 41.8545 17.9297 41.9043 18.2451 41.9043C18.6657 41.9043 19.0171 41.849 19.2993 41.7383C19.5871 41.6276 19.8057 41.4754 19.9551 41.2817C20.1045 41.0881 20.1792 40.8667 20.1792 40.6177ZM27.4922 34.0186V35.1973H22.6362V34.0186H27.4922ZM24.2798 31.8354H25.8154V40.7754C25.8154 41.0798 25.8625 41.3094 25.9565 41.4644C26.0506 41.6193 26.1724 41.7217 26.3218 41.7715C26.4712 41.8213 26.6317 41.8462 26.8032 41.8462C26.9305 41.8462 27.0633 41.8351 27.2017 41.813C27.3455 41.7853 27.4535 41.7632 27.5254 41.7466L27.5337 43C27.4119 43.0387 27.2515 43.0747 27.0522 43.1079C26.8586 43.1466 26.6234 43.166 26.3467 43.166C25.9704 43.166 25.6245 43.0913 25.3091 42.9419C24.9937 42.7925 24.7419 42.5435 24.5537 42.1948C24.3711 41.8407 24.2798 41.3647 24.2798 40.7671V31.8354ZM34.5894 41.4644V36.8408C34.5894 36.4867 34.5174 36.1795 34.3735 35.9194C34.2352 35.6538 34.0249 35.4491 33.7427 35.3052C33.4604 35.1613 33.1118 35.0894 32.6968 35.0894C32.3094 35.0894 31.9691 35.1558 31.6758 35.2886C31.388 35.4214 31.1611 35.5957 30.9951 35.8115C30.8346 36.0273 30.7544 36.2598 30.7544 36.5088H29.2188C29.2188 36.1878 29.3018 35.8696 29.4678 35.5542C29.6338 35.2388 29.8717 34.9538 30.1816 34.6992C30.4971 34.4391 30.8734 34.2344 31.3105 34.085C31.7533 33.93 32.2458 33.8525 32.7881 33.8525C33.4411 33.8525 34.0166 33.9632 34.5146 34.1846C35.0182 34.4059 35.4111 34.7407 35.6934 35.189C35.9811 35.6317 36.125 36.1878 36.125 36.8574V41.041C36.125 41.3398 36.1499 41.658 36.1997 41.9956C36.255 42.3332 36.3353 42.6237 36.4404 42.8672V43H34.8384C34.7609 42.8229 34.7 42.5877 34.6558 42.2944C34.6115 41.9956 34.5894 41.7189 34.5894 41.4644ZM34.855 37.5547L34.8716 38.6338H33.3193C32.8822 38.6338 32.492 38.6698 32.1489 38.7417C31.8058 38.8081 31.5181 38.9105 31.2856 39.0488C31.0532 39.1872 30.8761 39.3615 30.7544 39.5718C30.6326 39.7765 30.5718 40.0173 30.5718 40.2939C30.5718 40.5762 30.6354 40.8335 30.7627 41.0659C30.89 41.2983 31.0809 41.4837 31.3354 41.6221C31.5955 41.7549 31.9137 41.8213 32.29 41.8213C32.7604 41.8213 33.1755 41.7217 33.5352 41.5225C33.8949 41.3232 34.1799 41.0798 34.3901 40.792C34.606 40.5042 34.7222 40.2248 34.7388 39.9536L35.3945 40.6924C35.3558 40.9248 35.2507 41.1821 35.0791 41.4644C34.9076 41.7466 34.6779 42.0177 34.3901 42.2778C34.1079 42.5324 33.7703 42.7454 33.3774 42.917C32.9901 43.083 32.5529 43.166 32.0659 43.166C31.4572 43.166 30.9232 43.047 30.4639 42.8091C30.0101 42.5711 29.6559 42.2529 29.4014 41.8545C29.1523 41.4505 29.0278 40.9995 29.0278 40.5015C29.0278 40.02 29.1219 39.5967 29.3101 39.2314C29.4982 38.8607 29.7694 38.5535 30.1235 38.3101C30.4777 38.061 30.9038 37.8729 31.4019 37.7456C31.8999 37.6183 32.4561 37.5547 33.0703 37.5547H34.855ZM40.0762 35.4297V43H38.5405V34.0186H40.0347L40.0762 35.4297ZM42.8818 33.9688L42.8735 35.3965C42.7463 35.3688 42.6245 35.3522 42.5083 35.3467C42.3976 35.3356 42.2703 35.3301 42.1265 35.3301C41.7723 35.3301 41.4596 35.3854 41.1885 35.4961C40.9173 35.6068 40.6877 35.7617 40.4995 35.9609C40.3114 36.1602 40.1619 36.3981 40.0513 36.6748C39.9461 36.946 39.877 37.2448 39.8438 37.5713L39.4121 37.8203C39.4121 37.278 39.4647 36.7689 39.5698 36.293C39.6805 35.8171 39.8493 35.3965 40.0762 35.0312C40.3031 34.6605 40.5908 34.3727 40.9395 34.168C41.2936 33.9577 41.7142 33.8525 42.2012 33.8525C42.3118 33.8525 42.4391 33.8664 42.583 33.894C42.7269 33.9162 42.8265 33.9411 42.8818 33.9688Z" fill="#484848"/>
<path d="M8.59131 62.9941V64.8369C8.59131 65.8275 8.50277 66.6631 8.32568 67.3438C8.1486 68.0244 7.89404 68.5723 7.56201 68.9873C7.22998 69.4023 6.82878 69.7039 6.3584 69.8921C5.89355 70.0747 5.36784 70.166 4.78125 70.166C4.31641 70.166 3.88753 70.1079 3.49463 69.9917C3.10173 69.8755 2.74756 69.6901 2.43213 69.4355C2.12223 69.1755 1.85661 68.8379 1.63525 68.4229C1.4139 68.0078 1.24512 67.5042 1.12891 66.9121C1.0127 66.32 0.95459 65.6283 0.95459 64.8369V62.9941C0.95459 62.0036 1.04313 61.1735 1.22021 60.5039C1.40283 59.8343 1.66016 59.2975 1.99219 58.8936C2.32422 58.484 2.72266 58.1908 3.1875 58.0137C3.65788 57.8366 4.18359 57.748 4.76465 57.748C5.23503 57.748 5.66667 57.8062 6.05957 57.9224C6.45801 58.033 6.81217 58.2129 7.12207 58.4619C7.43197 58.7054 7.69482 59.0319 7.91064 59.4414C8.132 59.8454 8.30078 60.3407 8.41699 60.9272C8.5332 61.5138 8.59131 62.2028 8.59131 62.9941ZM7.04736 65.0859V62.7368C7.04736 62.1945 7.01416 61.7186 6.94775 61.3091C6.88688 60.894 6.79557 60.5399 6.67383 60.2466C6.55208 59.9533 6.39714 59.7153 6.20898 59.5327C6.02637 59.3501 5.81331 59.2173 5.56982 59.1343C5.33187 59.0457 5.06348 59.0015 4.76465 59.0015C4.39941 59.0015 4.07568 59.0706 3.79346 59.209C3.51123 59.3418 3.27327 59.5549 3.07959 59.8481C2.89144 60.1414 2.74756 60.526 2.64795 61.002C2.54834 61.4779 2.49854 62.0562 2.49854 62.7368V65.0859C2.49854 65.6283 2.52897 66.1069 2.58984 66.522C2.65625 66.937 2.75309 67.2967 2.88037 67.6011C3.00765 67.8999 3.1626 68.1462 3.34521 68.3398C3.52783 68.5335 3.73812 68.6774 3.97607 68.7715C4.21956 68.86 4.48796 68.9043 4.78125 68.9043C5.15755 68.9043 5.48682 68.8324 5.76904 68.6885C6.05127 68.5446 6.28646 68.3205 6.47461 68.0161C6.66829 67.7062 6.81217 67.3105 6.90625 66.8291C7.00033 66.3421 7.04736 65.7611 7.04736 65.0859ZM20.1792 67.6177C20.1792 67.3963 20.1294 67.1916 20.0298 67.0034C19.9357 66.8097 19.7393 66.6354 19.4404 66.4805C19.1471 66.32 18.7044 66.1816 18.1123 66.0654C17.6143 65.9603 17.1632 65.8358 16.7593 65.6919C16.3608 65.548 16.0205 65.3737 15.7383 65.1689C15.4616 64.9642 15.2485 64.7235 15.0991 64.4468C14.9497 64.1701 14.875 63.8464 14.875 63.4756C14.875 63.1214 14.9525 62.7866 15.1074 62.4712C15.2679 62.1558 15.492 61.8763 15.7798 61.6328C16.0731 61.3893 16.4245 61.1984 16.834 61.0601C17.2435 60.9217 17.7 60.8525 18.2036 60.8525C18.923 60.8525 19.5373 60.9798 20.0464 61.2344C20.5555 61.4889 20.9456 61.8293 21.2168 62.2554C21.488 62.6759 21.6235 63.1436 21.6235 63.6582H20.0879C20.0879 63.4092 20.0132 63.1685 19.8638 62.936C19.7199 62.6981 19.5068 62.5016 19.2246 62.3467C18.9479 62.1917 18.6076 62.1143 18.2036 62.1143C17.7775 62.1143 17.4316 62.1807 17.166 62.3135C16.9059 62.4408 16.715 62.604 16.5933 62.8032C16.4771 63.0024 16.4189 63.2127 16.4189 63.4341C16.4189 63.6001 16.4466 63.7495 16.502 63.8823C16.5628 64.0096 16.668 64.1286 16.8174 64.2393C16.9668 64.3444 17.1771 64.444 17.4482 64.5381C17.7194 64.6322 18.0653 64.7262 18.4858 64.8203C19.2218 64.9863 19.8278 65.1855 20.3037 65.418C20.7796 65.6504 21.1338 65.9354 21.3662 66.2729C21.5986 66.6105 21.7148 67.02 21.7148 67.5015C21.7148 67.8944 21.6318 68.2541 21.4658 68.5806C21.3053 68.9071 21.0701 69.1893 20.7603 69.4272C20.4559 69.6597 20.0907 69.8423 19.6646 69.9751C19.244 70.1024 18.7708 70.166 18.2451 70.166C17.4538 70.166 16.7842 70.0249 16.2363 69.7427C15.6885 69.4604 15.2734 69.0952 14.9912 68.647C14.709 68.1987 14.5679 67.7256 14.5679 67.2275H16.1118C16.134 67.6481 16.2557 67.9829 16.4771 68.2319C16.6984 68.4754 16.9696 68.6497 17.2905 68.7549C17.6115 68.8545 17.9297 68.9043 18.2451 68.9043C18.6657 68.9043 19.0171 68.849 19.2993 68.7383C19.5871 68.6276 19.8057 68.4754 19.9551 68.2817C20.1045 68.0881 20.1792 67.8667 20.1792 67.6177ZM27.4922 61.0186V62.1973H22.6362V61.0186H27.4922ZM24.2798 58.8354H25.8154V67.7754C25.8154 68.0798 25.8625 68.3094 25.9565 68.4644C26.0506 68.6193 26.1724 68.7217 26.3218 68.7715C26.4712 68.8213 26.6317 68.8462 26.8032 68.8462C26.9305 68.8462 27.0633 68.8351 27.2017 68.813C27.3455 68.7853 27.4535 68.7632 27.5254 68.7466L27.5337 70C27.4119 70.0387 27.2515 70.0747 27.0522 70.1079C26.8586 70.1466 26.6234 70.166 26.3467 70.166C25.9704 70.166 25.6245 70.0913 25.3091 69.9419C24.9937 69.7925 24.7419 69.5435 24.5537 69.1948C24.3711 68.8407 24.2798 68.3647 24.2798 67.7671V58.8354ZM34.5894 68.4644V63.8408C34.5894 63.4867 34.5174 63.1795 34.3735 62.9194C34.2352 62.6538 34.0249 62.4491 33.7427 62.3052C33.4604 62.1613 33.1118 62.0894 32.6968 62.0894C32.3094 62.0894 31.9691 62.1558 31.6758 62.2886C31.388 62.4214 31.1611 62.5957 30.9951 62.8115C30.8346 63.0273 30.7544 63.2598 30.7544 63.5088H29.2188C29.2188 63.1878 29.3018 62.8696 29.4678 62.5542C29.6338 62.2388 29.8717 61.9538 30.1816 61.6992C30.4971 61.4391 30.8734 61.2344 31.3105 61.085C31.7533 60.93 32.2458 60.8525 32.7881 60.8525C33.4411 60.8525 34.0166 60.9632 34.5146 61.1846C35.0182 61.4059 35.4111 61.7407 35.6934 62.189C35.9811 62.6317 36.125 63.1878 36.125 63.8574V68.041C36.125 68.3398 36.1499 68.658 36.1997 68.9956C36.255 69.3332 36.3353 69.6237 36.4404 69.8672V70H34.8384C34.7609 69.8229 34.7 69.5877 34.6558 69.2944C34.6115 68.9956 34.5894 68.7189 34.5894 68.4644ZM34.855 64.5547L34.8716 65.6338H33.3193C32.8822 65.6338 32.492 65.6698 32.1489 65.7417C31.8058 65.8081 31.5181 65.9105 31.2856 66.0488C31.0532 66.1872 30.8761 66.3615 30.7544 66.5718C30.6326 66.7765 30.5718 67.0173 30.5718 67.2939C30.5718 67.5762 30.6354 67.8335 30.7627 68.0659C30.89 68.2983 31.0809 68.4837 31.3354 68.6221C31.5955 68.7549 31.9137 68.8213 32.29 68.8213C32.7604 68.8213 33.1755 68.7217 33.5352 68.5225C33.8949 68.3232 34.1799 68.0798 34.3901 67.792C34.606 67.5042 34.7222 67.2248 34.7388 66.9536L35.3945 67.6924C35.3558 67.9248 35.2507 68.1821 35.0791 68.4644C34.9076 68.7466 34.6779 69.0177 34.3901 69.2778C34.1079 69.5324 33.7703 69.7454 33.3774 69.917C32.9901 70.083 32.5529 70.166 32.0659 70.166C31.4572 70.166 30.9232 70.047 30.4639 69.8091C30.0101 69.5711 29.6559 69.2529 29.4014 68.8545C29.1523 68.4505 29.0278 67.9995 29.0278 67.5015C29.0278 67.02 29.1219 66.5967 29.3101 66.2314C29.4982 65.8607 29.7694 65.5535 30.1235 65.3101C30.4777 65.061 30.9038 64.8729 31.4019 64.7456C31.8999 64.6183 32.4561 64.5547 33.0703 64.5547H34.855ZM40.0762 62.4297V70H38.5405V61.0186H40.0347L40.0762 62.4297ZM42.8818 60.9688L42.8735 62.3965C42.7463 62.3688 42.6245 62.3522 42.5083 62.3467C42.3976 62.3356 42.2703 62.3301 42.1265 62.3301C41.7723 62.3301 41.4596 62.3854 41.1885 62.4961C40.9173 62.6068 40.6877 62.7617 40.4995 62.9609C40.3114 63.1602 40.1619 63.3981 40.0513 63.6748C39.9461 63.946 39.877 64.2448 39.8438 64.5713L39.4121 64.8203C39.4121 64.278 39.4647 63.7689 39.5698 63.293C39.6805 62.8171 39.8493 62.3965 40.0762 62.0312C40.3031 61.6605 40.5908 61.3727 40.9395 61.168C41.2936 60.9577 41.7142 60.8525 42.2012 60.8525C42.3118 60.8525 42.4391 60.8664 42.583 60.894C42.7269 60.9162 42.8265 60.9411 42.8818 60.9688Z" fill="#484848"/>
<path d="M8.59131 89.9941V91.8369C8.59131 92.8275 8.50277 93.6631 8.32568 94.3438C8.1486 95.0244 7.89404 95.5723 7.56201 95.9873C7.22998 96.4023 6.82878 96.7039 6.3584 96.8921C5.89355 97.0747 5.36784 97.166 4.78125 97.166C4.31641 97.166 3.88753 97.1079 3.49463 96.9917C3.10173 96.8755 2.74756 96.6901 2.43213 96.4355C2.12223 96.1755 1.85661 95.8379 1.63525 95.4229C1.4139 95.0078 1.24512 94.5042 1.12891 93.9121C1.0127 93.32 0.95459 92.6283 0.95459 91.8369V89.9941C0.95459 89.0036 1.04313 88.1735 1.22021 87.5039C1.40283 86.8343 1.66016 86.2975 1.99219 85.8936C2.32422 85.484 2.72266 85.1908 3.1875 85.0137C3.65788 84.8366 4.18359 84.748 4.76465 84.748C5.23503 84.748 5.66667 84.8062 6.05957 84.9224C6.45801 85.033 6.81217 85.2129 7.12207 85.4619C7.43197 85.7054 7.69482 86.0319 7.91064 86.4414C8.132 86.8454 8.30078 87.3407 8.41699 87.9272C8.5332 88.5138 8.59131 89.2028 8.59131 89.9941ZM7.04736 92.0859V89.7368C7.04736 89.1945 7.01416 88.7186 6.94775 88.3091C6.88688 87.894 6.79557 87.5399 6.67383 87.2466C6.55208 86.9533 6.39714 86.7153 6.20898 86.5327C6.02637 86.3501 5.81331 86.2173 5.56982 86.1343C5.33187 86.0457 5.06348 86.0015 4.76465 86.0015C4.39941 86.0015 4.07568 86.0706 3.79346 86.209C3.51123 86.3418 3.27327 86.5549 3.07959 86.8481C2.89144 87.1414 2.74756 87.526 2.64795 88.002C2.54834 88.4779 2.49854 89.0562 2.49854 89.7368V92.0859C2.49854 92.6283 2.52897 93.1069 2.58984 93.522C2.65625 93.937 2.75309 94.2967 2.88037 94.6011C3.00765 94.8999 3.1626 95.1462 3.34521 95.3398C3.52783 95.5335 3.73812 95.6774 3.97607 95.7715C4.21956 95.86 4.48796 95.9043 4.78125 95.9043C5.15755 95.9043 5.48682 95.8324 5.76904 95.6885C6.05127 95.5446 6.28646 95.3205 6.47461 95.0161C6.66829 94.7062 6.81217 94.3105 6.90625 93.8291C7.00033 93.3421 7.04736 92.7611 7.04736 92.0859ZM20.1792 94.6177C20.1792 94.3963 20.1294 94.1916 20.0298 94.0034C19.9357 93.8097 19.7393 93.6354 19.4404 93.4805C19.1471 93.32 18.7044 93.1816 18.1123 93.0654C17.6143 92.9603 17.1632 92.8358 16.7593 92.6919C16.3608 92.548 16.0205 92.3737 15.7383 92.1689C15.4616 91.9642 15.2485 91.7235 15.0991 91.4468C14.9497 91.1701 14.875 90.8464 14.875 90.4756C14.875 90.1214 14.9525 89.7866 15.1074 89.4712C15.2679 89.1558 15.492 88.8763 15.7798 88.6328C16.0731 88.3893 16.4245 88.1984 16.834 88.0601C17.2435 87.9217 17.7 87.8525 18.2036 87.8525C18.923 87.8525 19.5373 87.9798 20.0464 88.2344C20.5555 88.4889 20.9456 88.8293 21.2168 89.2554C21.488 89.6759 21.6235 90.1436 21.6235 90.6582H20.0879C20.0879 90.4092 20.0132 90.1685 19.8638 89.936C19.7199 89.6981 19.5068 89.5016 19.2246 89.3467C18.9479 89.1917 18.6076 89.1143 18.2036 89.1143C17.7775 89.1143 17.4316 89.1807 17.166 89.3135C16.9059 89.4408 16.715 89.604 16.5933 89.8032C16.4771 90.0024 16.4189 90.2127 16.4189 90.4341C16.4189 90.6001 16.4466 90.7495 16.502 90.8823C16.5628 91.0096 16.668 91.1286 16.8174 91.2393C16.9668 91.3444 17.1771 91.444 17.4482 91.5381C17.7194 91.6322 18.0653 91.7262 18.4858 91.8203C19.2218 91.9863 19.8278 92.1855 20.3037 92.418C20.7796 92.6504 21.1338 92.9354 21.3662 93.2729C21.5986 93.6105 21.7148 94.02 21.7148 94.5015C21.7148 94.8944 21.6318 95.2541 21.4658 95.5806C21.3053 95.9071 21.0701 96.1893 20.7603 96.4272C20.4559 96.6597 20.0907 96.8423 19.6646 96.9751C19.244 97.1024 18.7708 97.166 18.2451 97.166C17.4538 97.166 16.7842 97.0249 16.2363 96.7427C15.6885 96.4604 15.2734 96.0952 14.9912 95.647C14.709 95.1987 14.5679 94.7256 14.5679 94.2275H16.1118C16.134 94.6481 16.2557 94.9829 16.4771 95.2319C16.6984 95.4754 16.9696 95.6497 17.2905 95.7549C17.6115 95.8545 17.9297 95.9043 18.2451 95.9043C18.6657 95.9043 19.0171 95.849 19.2993 95.7383C19.5871 95.6276 19.8057 95.4754 19.9551 95.2817C20.1045 95.0881 20.1792 94.8667 20.1792 94.6177ZM27.4922 88.0186V89.1973H22.6362V88.0186H27.4922ZM24.2798 85.8354H25.8154V94.7754C25.8154 95.0798 25.8625 95.3094 25.9565 95.4644C26.0506 95.6193 26.1724 95.7217 26.3218 95.7715C26.4712 95.8213 26.6317 95.8462 26.8032 95.8462C26.9305 95.8462 27.0633 95.8351 27.2017 95.813C27.3455 95.7853 27.4535 95.7632 27.5254 95.7466L27.5337 97C27.4119 97.0387 27.2515 97.0747 27.0522 97.1079C26.8586 97.1466 26.6234 97.166 26.3467 97.166C25.9704 97.166 25.6245 97.0913 25.3091 96.9419C24.9937 96.7925 24.7419 96.5435 24.5537 96.1948C24.3711 95.8407 24.2798 95.3647 24.2798 94.7671V85.8354ZM34.5894 95.4644V90.8408C34.5894 90.4867 34.5174 90.1795 34.3735 89.9194C34.2352 89.6538 34.0249 89.4491 33.7427 89.3052C33.4604 89.1613 33.1118 89.0894 32.6968 89.0894C32.3094 89.0894 31.9691 89.1558 31.6758 89.2886C31.388 89.4214 31.1611 89.5957 30.9951 89.8115C30.8346 90.0273 30.7544 90.2598 30.7544 90.5088H29.2188C29.2188 90.1878 29.3018 89.8696 29.4678 89.5542C29.6338 89.2388 29.8717 88.9538 30.1816 88.6992C30.4971 88.4391 30.8734 88.2344 31.3105 88.085C31.7533 87.93 32.2458 87.8525 32.7881 87.8525C33.4411 87.8525 34.0166 87.9632 34.5146 88.1846C35.0182 88.4059 35.4111 88.7407 35.6934 89.189C35.9811 89.6317 36.125 90.1878 36.125 90.8574V95.041C36.125 95.3398 36.1499 95.658 36.1997 95.9956C36.255 96.3332 36.3353 96.6237 36.4404 96.8672V97H34.8384C34.7609 96.8229 34.7 96.5877 34.6558 96.2944C34.6115 95.9956 34.5894 95.7189 34.5894 95.4644ZM34.855 91.5547L34.8716 92.6338H33.3193C32.8822 92.6338 32.492 92.6698 32.1489 92.7417C31.8058 92.8081 31.5181 92.9105 31.2856 93.0488C31.0532 93.1872 30.8761 93.3615 30.7544 93.5718C30.6326 93.7765 30.5718 94.0173 30.5718 94.2939C30.5718 94.5762 30.6354 94.8335 30.7627 95.0659C30.89 95.2983 31.0809 95.4837 31.3354 95.6221C31.5955 95.7549 31.9137 95.8213 32.29 95.8213C32.7604 95.8213 33.1755 95.7217 33.5352 95.5225C33.8949 95.3232 34.1799 95.0798 34.3901 94.792C34.606 94.5042 34.7222 94.2248 34.7388 93.9536L35.3945 94.6924C35.3558 94.9248 35.2507 95.1821 35.0791 95.4644C34.9076 95.7466 34.6779 96.0177 34.3901 96.2778C34.1079 96.5324 33.7703 96.7454 33.3774 96.917C32.9901 97.083 32.5529 97.166 32.0659 97.166C31.4572 97.166 30.9232 97.047 30.4639 96.8091C30.0101 96.5711 29.6559 96.2529 29.4014 95.8545C29.1523 95.4505 29.0278 94.9995 29.0278 94.5015C29.0278 94.02 29.1219 93.5967 29.3101 93.2314C29.4982 92.8607 29.7694 92.5535 30.1235 92.3101C30.4777 92.061 30.9038 91.8729 31.4019 91.7456C31.8999 91.6183 32.4561 91.5547 33.0703 91.5547H34.855ZM40.0762 89.4297V97H38.5405V88.0186H40.0347L40.0762 89.4297ZM42.8818 87.9688L42.8735 89.3965C42.7463 89.3688 42.6245 89.3522 42.5083 89.3467C42.3976 89.3356 42.2703 89.3301 42.1265 89.3301C41.7723 89.3301 41.4596 89.3854 41.1885 89.4961C40.9173 89.6068 40.6877 89.7617 40.4995 89.9609C40.3114 90.1602 40.1619 90.3981 40.0513 90.6748C39.9461 90.946 39.877 91.2448 39.8438 91.5713L39.4121 91.8203C39.4121 91.278 39.4647 90.7689 39.5698 90.293C39.6805 89.8171 39.8493 89.3965 40.0762 89.0312C40.3031 88.6605 40.5908 88.3727 40.9395 88.168C41.2936 87.9577 41.7142 87.8525 42.2012 87.8525C42.3118 87.8525 42.4391 87.8664 42.583 87.894C42.7269 87.9162 42.8265 87.9411 42.8818 87.9688Z" fill="#484848"/>
<path d="M8.59131 116.994V118.837C8.59131 119.827 8.50277 120.663 8.32568 121.344C8.1486 122.024 7.89404 122.572 7.56201 122.987C7.22998 123.402 6.82878 123.704 6.3584 123.892C5.89355 124.075 5.36784 124.166 4.78125 124.166C4.31641 124.166 3.88753 124.108 3.49463 123.992C3.10173 123.875 2.74756 123.69 2.43213 123.436C2.12223 123.175 1.85661 122.838 1.63525 122.423C1.4139 122.008 1.24512 121.504 1.12891 120.912C1.0127 120.32 0.95459 119.628 0.95459 118.837V116.994C0.95459 116.004 1.04313 115.174 1.22021 114.504C1.40283 113.834 1.66016 113.298 1.99219 112.894C2.32422 112.484 2.72266 112.191 3.1875 112.014C3.65788 111.837 4.18359 111.748 4.76465 111.748C5.23503 111.748 5.66667 111.806 6.05957 111.922C6.45801 112.033 6.81217 112.213 7.12207 112.462C7.43197 112.705 7.69482 113.032 7.91064 113.441C8.132 113.845 8.30078 114.341 8.41699 114.927C8.5332 115.514 8.59131 116.203 8.59131 116.994ZM7.04736 119.086V116.737C7.04736 116.194 7.01416 115.719 6.94775 115.309C6.88688 114.894 6.79557 114.54 6.67383 114.247C6.55208 113.953 6.39714 113.715 6.20898 113.533C6.02637 113.35 5.81331 113.217 5.56982 113.134C5.33187 113.046 5.06348 113.001 4.76465 113.001C4.39941 113.001 4.07568 113.071 3.79346 113.209C3.51123 113.342 3.27327 113.555 3.07959 113.848C2.89144 114.141 2.74756 114.526 2.64795 115.002C2.54834 115.478 2.49854 116.056 2.49854 116.737V119.086C2.49854 119.628 2.52897 120.107 2.58984 120.522C2.65625 120.937 2.75309 121.297 2.88037 121.601C3.00765 121.9 3.1626 122.146 3.34521 122.34C3.52783 122.534 3.73812 122.677 3.97607 122.771C4.21956 122.86 4.48796 122.904 4.78125 122.904C5.15755 122.904 5.48682 122.832 5.76904 122.688C6.05127 122.545 6.28646 122.32 6.47461 122.016C6.66829 121.706 6.81217 121.311 6.90625 120.829C7.00033 120.342 7.04736 119.761 7.04736 119.086ZM20.1792 121.618C20.1792 121.396 20.1294 121.192 20.0298 121.003C19.9357 120.81 19.7393 120.635 19.4404 120.48C19.1471 120.32 18.7044 120.182 18.1123 120.065C17.6143 119.96 17.1632 119.836 16.7593 119.692C16.3608 119.548 16.0205 119.374 15.7383 119.169C15.4616 118.964 15.2485 118.723 15.0991 118.447C14.9497 118.17 14.875 117.846 14.875 117.476C14.875 117.121 14.9525 116.787 15.1074 116.471C15.2679 116.156 15.492 115.876 15.7798 115.633C16.0731 115.389 16.4245 115.198 16.834 115.06C17.2435 114.922 17.7 114.853 18.2036 114.853C18.923 114.853 19.5373 114.98 20.0464 115.234C20.5555 115.489 20.9456 115.829 21.2168 116.255C21.488 116.676 21.6235 117.144 21.6235 117.658H20.0879C20.0879 117.409 20.0132 117.168 19.8638 116.936C19.7199 116.698 19.5068 116.502 19.2246 116.347C18.9479 116.192 18.6076 116.114 18.2036 116.114C17.7775 116.114 17.4316 116.181 17.166 116.313C16.9059 116.441 16.715 116.604 16.5933 116.803C16.4771 117.002 16.4189 117.213 16.4189 117.434C16.4189 117.6 16.4466 117.75 16.502 117.882C16.5628 118.01 16.668 118.129 16.8174 118.239C16.9668 118.344 17.1771 118.444 17.4482 118.538C17.7194 118.632 18.0653 118.726 18.4858 118.82C19.2218 118.986 19.8278 119.186 20.3037 119.418C20.7796 119.65 21.1338 119.935 21.3662 120.273C21.5986 120.611 21.7148 121.02 21.7148 121.501C21.7148 121.894 21.6318 122.254 21.4658 122.581C21.3053 122.907 21.0701 123.189 20.7603 123.427C20.4559 123.66 20.0907 123.842 19.6646 123.975C19.244 124.102 18.7708 124.166 18.2451 124.166C17.4538 124.166 16.7842 124.025 16.2363 123.743C15.6885 123.46 15.2734 123.095 14.9912 122.647C14.709 122.199 14.5679 121.726 14.5679 121.228H16.1118C16.134 121.648 16.2557 121.983 16.4771 122.232C16.6984 122.475 16.9696 122.65 17.2905 122.755C17.6115 122.854 17.9297 122.904 18.2451 122.904C18.6657 122.904 19.0171 122.849 19.2993 122.738C19.5871 122.628 19.8057 122.475 19.9551 122.282C20.1045 122.088 20.1792 121.867 20.1792 121.618ZM27.4922 115.019V116.197H22.6362V115.019H27.4922ZM24.2798 112.835H25.8154V121.775C25.8154 122.08 25.8625 122.309 25.9565 122.464C26.0506 122.619 26.1724 122.722 26.3218 122.771C26.4712 122.821 26.6317 122.846 26.8032 122.846C26.9305 122.846 27.0633 122.835 27.2017 122.813C27.3455 122.785 27.4535 122.763 27.5254 122.747L27.5337 124C27.4119 124.039 27.2515 124.075 27.0522 124.108C26.8586 124.147 26.6234 124.166 26.3467 124.166C25.9704 124.166 25.6245 124.091 25.3091 123.942C24.9937 123.792 24.7419 123.543 24.5537 123.195C24.3711 122.841 24.2798 122.365 24.2798 121.767V112.835ZM34.5894 122.464V117.841C34.5894 117.487 34.5174 117.18 34.3735 116.919C34.2352 116.654 34.0249 116.449 33.7427 116.305C33.4604 116.161 33.1118 116.089 32.6968 116.089C32.3094 116.089 31.9691 116.156 31.6758 116.289C31.388 116.421 31.1611 116.596 30.9951 116.812C30.8346 117.027 30.7544 117.26 30.7544 117.509H29.2188C29.2188 117.188 29.3018 116.87 29.4678 116.554C29.6338 116.239 29.8717 115.954 30.1816 115.699C30.4971 115.439 30.8734 115.234 31.3105 115.085C31.7533 114.93 32.2458 114.853 32.7881 114.853C33.4411 114.853 34.0166 114.963 34.5146 115.185C35.0182 115.406 35.4111 115.741 35.6934 116.189C35.9811 116.632 36.125 117.188 36.125 117.857V122.041C36.125 122.34 36.1499 122.658 36.1997 122.996C36.255 123.333 36.3353 123.624 36.4404 123.867V124H34.8384C34.7609 123.823 34.7 123.588 34.6558 123.294C34.6115 122.996 34.5894 122.719 34.5894 122.464ZM34.855 118.555L34.8716 119.634H33.3193C32.8822 119.634 32.492 119.67 32.1489 119.742C31.8058 119.808 31.5181 119.91 31.2856 120.049C31.0532 120.187 30.8761 120.361 30.7544 120.572C30.6326 120.777 30.5718 121.017 30.5718 121.294C30.5718 121.576 30.6354 121.833 30.7627 122.066C30.89 122.298 31.0809 122.484 31.3354 122.622C31.5955 122.755 31.9137 122.821 32.29 122.821C32.7604 122.821 33.1755 122.722 33.5352 122.522C33.8949 122.323 34.1799 122.08 34.3901 121.792C34.606 121.504 34.7222 121.225 34.7388 120.954L35.3945 121.692C35.3558 121.925 35.2507 122.182 35.0791 122.464C34.9076 122.747 34.6779 123.018 34.3901 123.278C34.1079 123.532 33.7703 123.745 33.3774 123.917C32.9901 124.083 32.5529 124.166 32.0659 124.166C31.4572 124.166 30.9232 124.047 30.4639 123.809C30.0101 123.571 29.6559 123.253 29.4014 122.854C29.1523 122.451 29.0278 122 29.0278 121.501C29.0278 121.02 29.1219 120.597 29.3101 120.231C29.4982 119.861 29.7694 119.554 30.1235 119.31C30.4777 119.061 30.9038 118.873 31.4019 118.746C31.8999 118.618 32.4561 118.555 33.0703 118.555H34.855ZM40.0762 116.43V124H38.5405V115.019H40.0347L40.0762 116.43ZM42.8818 114.969L42.8735 116.396C42.7463 116.369 42.6245 116.352 42.5083 116.347C42.3976 116.336 42.2703 116.33 42.1265 116.33C41.7723 116.33 41.4596 116.385 41.1885 116.496C40.9173 116.607 40.6877 116.762 40.4995 116.961C40.3114 117.16 40.1619 117.398 40.0513 117.675C39.9461 117.946 39.877 118.245 39.8438 118.571L39.4121 118.82C39.4121 118.278 39.4647 117.769 39.5698 117.293C39.6805 116.817 39.8493 116.396 40.0762 116.031C40.3031 115.66 40.5908 115.373 40.9395 115.168C41.2936 114.958 41.7142 114.853 42.2012 114.853C42.3118 114.853 42.4391 114.866 42.583 114.894C42.7269 114.916 42.8265 114.941 42.8818 114.969Z" fill="#484848"/>
<rect x="62" y="5" width="487" height="9" rx="4.5" fill="#D9D9D9"/>
<rect x="62" y="5" width="487" height="9" rx="4.5" fill="#1677BD"/>
<rect x="62" y="32" width="487" height="9" rx="4.5" fill="#D9D9D9"/>
<rect x="62" y="32" width="270.248" height="9" rx="4.5" fill="#268AD1"/>
<rect x="62" y="59" width="487" height="9" rx="4.5" fill="#D9D9D9"/>
<rect x="62" y="59" width="174.324" height="9" rx="4.5" fill="#2E95DF"/>
<rect x="62" y="86" width="487" height="9" rx="4.5" fill="#D9D9D9"/>
<rect x="62" y="86" width="116.216" height="9" rx="4.5" fill="#37A0EB"/>
<rect x="62" y="113" width="487" height="9" rx="4.5" fill="#D9D9D9"/>
<rect x="62" y="113" width="64.5644" height="9" rx="4.5" fill="#3DA6F2"/>
</svg>
