<svg width="49" height="49" viewBox="0 0 49 49" fill="none" xmlns="http://www.w3.org/2000/svg">
<path d="M24.0444 44.1854C35.0326 44.1854 43.9404 35.2287 43.9404 24.1801C43.9404 13.1315 35.0326 4.1748 24.0444 4.1748C13.0562 4.1748 4.14844 13.1315 4.14844 24.1801C4.14844 35.2287 13.0562 44.1854 24.0444 44.1854Z" fill="url(#paint0_linear_1_7360)"/>
<path d="M47.7886 28.4922C47.6954 27.8774 47.4859 27.2859 47.1712 26.7495C46.8079 26.1419 46.3192 25.6789 46.1263 24.9715C45.9422 24.3012 45.9956 23.5878 46.2774 22.9523C46.5539 22.3318 47.0683 21.8624 47.3609 21.2483C47.6477 20.6357 47.8076 19.9715 47.8309 19.2955C47.8542 18.6196 47.7405 17.9459 47.4965 17.3151C47.2526 16.6842 46.8835 16.1093 46.4115 15.6248C45.9396 15.1404 45.3744 14.7565 44.7501 14.4962C43.5541 13.9786 42.6731 13.0076 42.6763 11.6314C42.6763 11.0302 42.8274 10.4579 42.7728 9.85341C42.7119 9.12459 42.4924 8.4179 42.1297 7.78279C41.7807 7.18466 41.3102 6.66624 40.7487 6.26089C40.1872 5.85554 39.5471 5.57224 38.8695 5.42922C37.5641 5.17843 36.2619 5.75075 35.0433 5.04661C33.8247 4.34247 33.664 2.89561 32.7766 1.88602C31.9185 0.921438 30.7145 0.334427 29.4262 0.252549C28.1378 0.170671 26.8691 0.600547 25.8959 1.44875C24.6323 2.44226 23.1308 2.14645 21.9412 1.23975C21.3974 0.826804 20.7731 0.53247 20.1085 0.375741C19.4439 0.219012 18.7538 0.203376 18.0829 0.32984C16.7965 0.573806 15.6597 1.31859 14.9223 2.40046C14.6007 2.87953 14.4368 3.43898 14.1538 3.94378C13.8073 4.55212 13.2574 5.01888 12.6009 5.26203C12.0632 5.43929 11.4906 5.48342 10.9321 5.39064C10.2314 5.29165 9.51761 5.34431 8.839 5.54506C8.16039 5.74581 7.5328 6.08997 6.99871 6.55426C6.46462 7.01854 6.03647 7.59211 5.74323 8.23618C5.45 8.88025 5.29851 9.57979 5.29903 10.2875C5.29903 10.9562 5.49515 11.5736 5.35368 12.2488C5.22172 12.8672 4.9003 13.4291 4.43412 13.8564C3.93576 14.3098 3.30878 14.4577 2.73647 14.7792C2.16392 15.1146 1.66371 15.5604 1.26489 16.0907C0.866072 16.6211 0.576592 17.2254 0.413263 17.8685C0.249934 18.5116 0.216011 19.1808 0.313464 19.8372C0.410916 20.4936 0.637803 21.124 0.980946 21.692C1.34105 22.2675 1.78154 22.7016 1.96802 23.38C2.17234 24.1306 2.07904 24.9311 1.70759 25.6146C1.42143 26.1419 0.990585 26.5566 0.743011 27.1032C0.441316 27.7385 0.273852 28.4291 0.251078 29.132C0.223989 30.4418 0.708406 31.7105 1.60149 32.6688C2.50176 33.6334 3.91646 33.7909 4.74278 34.8005C5.72987 36.003 5.19613 37.2216 5.34403 38.5977C5.41794 39.3002 5.64053 39.9789 5.99698 40.5887C6.35344 41.1985 6.83561 41.7254 7.41145 42.1345C8.56251 42.9576 9.80359 43.0669 11.1636 42.9383C11.825 42.8592 12.4942 42.9982 13.0693 43.3343C13.6444 43.6703 14.0941 44.1849 14.35 44.8C14.8901 46.0185 15.6135 47.0313 16.8482 47.6197C17.4461 47.9078 18.0958 48.0725 18.7587 48.1039C19.4216 48.1354 20.084 48.0331 20.7065 47.803C22.0087 47.3014 22.8639 46.0989 24.3944 46.2918C25.7448 46.459 26.6193 47.6712 27.9312 47.9831C28.8861 48.2161 29.889 48.1568 30.8098 47.8128C31.7306 47.4688 32.5267 46.856 33.0949 46.0539C33.4775 45.517 33.635 44.8868 33.9791 44.3338C34.7764 43.0477 36.0368 42.8837 37.4033 43.0187C38.0871 43.08 38.7761 42.9979 39.4263 42.7777C40.0765 42.5574 40.6736 42.2038 41.1793 41.7396C41.685 41.2753 42.0882 40.7106 42.3632 40.0816C42.6381 39.4525 42.7787 38.773 42.776 38.0865C42.776 37.4435 42.5863 36.8647 42.6988 36.2313C42.8208 35.5328 43.1837 34.8991 43.7245 34.4404C44.2068 34.0321 44.7984 33.8938 45.3321 33.5916C45.944 33.2433 46.4728 32.766 46.8819 32.193C47.662 31.128 47.9881 29.7972 47.7886 28.4922ZM24.0439 44.1826C20.0822 44.2062 16.2026 43.0529 12.897 40.8689C9.59149 38.6849 7.00886 35.5686 5.47655 31.9151C3.94423 28.2616 3.53123 24.2353 4.28991 20.3468C5.04859 16.4582 6.94479 12.8825 9.73811 10.0729C12.5314 7.26336 16.0961 5.34645 19.9801 4.56521C23.8642 3.78398 27.8928 4.17359 31.5552 5.68468C35.2175 7.19577 38.3488 9.76027 40.5519 13.0531C42.755 16.3459 43.9308 20.2187 43.9303 24.1806C43.9396 26.8003 43.4324 29.3962 42.4378 31.8198C41.4432 34.2434 39.9806 36.4471 38.1337 38.3051C36.2868 40.1631 34.0917 41.6388 31.6741 42.6478C29.2565 43.6569 26.6637 44.1795 24.0439 44.1859V44.1826Z" fill="url(#paint1_linear_1_7360)"/>
<path d="M24.0444 42.2434C20.4674 42.2645 16.9646 41.2229 13.9802 39.2509C10.9958 37.2789 8.66409 34.4652 7.28064 31.1665C5.89719 27.8678 5.5243 24.2326 6.20925 20.7217C6.8942 17.2108 8.60614 13.9823 11.1281 11.4455C13.65 8.90867 16.8683 7.17774 20.3751 6.47212C23.8819 5.7665 27.5193 6.11796 30.8261 7.48195C34.1329 8.84594 36.9603 11.161 38.9498 14.1338C40.9394 17.1065 42.0015 20.6031 42.0016 24.1802C42.0093 28.9548 40.1232 33.5377 36.757 36.9239C33.3907 40.31 28.819 42.223 24.0444 42.2434ZM24.0444 6.60882C20.5643 6.58972 17.1569 7.60427 14.254 9.52388C11.3512 11.4435 9.08359 14.1817 7.7387 17.3915C6.39381 20.6013 6.03218 24.1381 6.69962 27.5537C7.36707 30.9692 9.03355 34.1097 11.4878 36.5771C13.9421 39.0445 17.0737 40.7276 20.4856 41.4133C23.8976 42.0989 27.4363 41.756 30.6532 40.4282C33.8701 39.1005 36.6203 36.8475 38.5554 33.9549C40.4904 31.0623 41.5231 27.6603 41.5225 24.1802C41.5293 19.534 39.6931 15.0748 36.4165 11.7807C33.1399 8.48666 28.6905 6.62669 24.0444 6.60882Z" fill="url(#paint2_linear_1_7360)"/>
<path d="M29.099 48.359C28.6943 48.3579 28.291 48.3115 27.8965 48.2208C27.2686 48.0373 26.6785 47.7433 26.1539 47.3526C25.5783 46.9732 25.0317 46.6131 24.3726 46.5328C23.4659 46.4202 22.8036 46.8543 22.1026 47.3109C21.6948 47.5956 21.2584 47.837 20.8005 48.0311C20.1455 48.2743 19.4482 48.3825 18.7503 48.3494C18.0525 48.3162 17.3685 48.1423 16.7396 47.8381C15.5885 47.2915 14.7815 46.3849 14.1224 44.8962C13.8841 44.33 13.4685 43.8564 12.9379 43.5468C12.4074 43.2372 11.7906 43.1082 11.1804 43.1792C9.9908 43.295 8.60823 43.2821 7.26426 42.3336C6.66332 41.9044 6.1597 41.3532 5.78628 40.716C5.41286 40.0789 5.17805 39.3702 5.09718 38.6361C5.06333 38.2081 5.06333 37.778 5.09718 37.35C5.13898 36.4754 5.17756 35.7199 4.55702 34.9643C4.12841 34.5116 3.60908 34.1544 3.03298 33.9161C2.43641 33.6586 1.89167 33.2947 1.42536 32.8422C0.485292 31.8395 -0.0258255 30.5092 0.00100536 29.135C0.0278039 28.3992 0.206224 27.6767 0.525093 27.013C0.676504 26.7083 0.859725 26.4206 1.07169 26.1545C1.23057 25.9508 1.37456 25.7359 1.50253 25.5115C1.84325 24.884 1.92959 24.1495 1.74368 23.4601C1.61221 23.0504 1.40377 22.6696 1.12956 22.338C1.01703 22.1804 0.898061 22.0165 0.785527 21.8364C0.425051 21.2403 0.186651 20.5785 0.0841831 19.8894C-0.0182846 19.2004 0.0172225 18.4978 0.188643 17.8226C0.360064 17.1474 0.663984 16.513 1.08273 15.9563C1.50147 15.3995 2.02669 14.9316 2.62787 14.5796C2.84008 14.4606 3.0555 14.3674 3.27092 14.2581C3.63954 14.1204 3.98284 13.9226 4.28694 13.6729C4.71659 13.28 5.01325 12.7631 5.13576 12.1939C5.19843 11.8074 5.19843 11.4133 5.13576 11.0267C5.10405 10.7803 5.08581 10.5324 5.08111 10.284C5.0825 9.19006 5.42787 8.12424 6.06836 7.23738C6.70884 6.35051 7.612 5.6875 8.65003 5.34219C9.39751 5.11052 10.1871 5.04791 10.9618 5.15891C11.4831 5.24715 12.018 5.20855 12.5212 5.04638C13.1238 4.82242 13.6281 4.39322 13.9455 3.83423C14.0581 3.62565 14.159 3.41097 14.2478 3.19118C14.3765 2.86644 14.537 2.5552 14.7269 2.26198C15.1186 1.68455 15.6237 1.19284 16.2115 0.816785C16.7992 0.440727 17.4574 0.188173 18.1458 0.0744845C18.8343 -0.0392045 19.5387 -0.0116468 20.2161 0.155474C20.8936 0.322595 21.53 0.625792 22.0866 1.04661C23.8871 2.41953 25.2439 1.65107 25.7423 1.25881C26.7645 0.371872 28.095 -0.0765512 29.4455 0.0107152C30.7961 0.0979816 32.0578 0.713911 32.9573 1.72503C33.3009 2.14819 33.5884 2.61397 33.8126 3.1108C34.1566 3.79565 34.4813 4.44513 35.1598 4.83739C35.8382 5.22965 36.5584 5.18785 37.3204 5.15891C37.8509 5.10788 38.3856 5.12408 38.912 5.20714C39.6215 5.35539 40.292 5.6513 40.8797 6.07561C41.4674 6.49993 41.9593 7.04317 42.3234 7.67002C42.7053 8.33545 42.9379 9.07601 43.005 9.84032C43.0259 10.2 43.0108 10.5608 42.96 10.9174C42.9303 11.1575 42.9131 11.399 42.9085 11.6409C42.9085 13.2131 44.1143 13.9719 44.8377 14.2838C45.4996 14.5721 46.0969 14.9905 46.594 15.5141C47.0911 16.0377 47.4779 16.6559 47.7314 17.3319C47.9764 17.9798 48.087 18.6708 48.0566 19.3628C48.0262 20.0548 47.8554 20.7334 47.5546 21.3573C47.3976 21.6622 47.2124 21.9518 47.0015 22.2222C46.7967 22.4803 46.6199 22.7595 46.4742 23.055C46.2155 23.6389 46.1667 24.2944 46.336 24.9102C46.4705 25.3218 46.681 25.7046 46.9565 26.0387C47.0883 26.2252 47.2298 26.4149 47.3552 26.6271C47.6832 27.192 47.9014 27.8139 47.9983 28.4598C48.2034 29.8174 47.8712 31.2015 47.0723 32.3181C46.6415 32.918 46.0866 33.418 45.4454 33.7843C45.2368 33.897 45.0222 33.9979 44.8023 34.0865C44.4657 34.2136 44.1494 34.3891 43.8634 34.6074C43.3657 35.0288 43.0312 35.6113 42.9182 36.2536C42.8743 36.6108 42.8819 36.9724 42.9407 37.3275C42.975 37.5715 42.9943 37.8174 42.9985 38.0638C43.0024 38.7847 42.8555 39.4984 42.5672 40.1591C42.279 40.8198 41.8557 41.4129 41.3246 41.9004C40.7936 42.3879 40.1664 42.7589 39.4835 42.9897C38.8006 43.2204 38.0769 43.3058 37.359 43.2403C35.7514 43.0796 34.7868 43.4397 34.1663 44.4428C34.0243 44.685 33.8986 44.9363 33.7901 45.1952C33.6511 45.5337 33.4776 45.8569 33.2724 46.1598C32.8706 46.7262 32.3602 47.2071 31.7709 47.5745C30.9693 48.0767 30.0448 48.3481 29.099 48.359ZM24.0768 46.0248C24.1951 46.0244 24.3132 46.0319 24.4305 46.0472C25.1551 46.1861 25.8368 46.4934 26.4207 46.9443C26.898 47.3021 27.4346 47.5731 28.0058 47.7449C28.9152 47.9677 29.8707 47.9104 30.7468 47.5805C31.623 47.2505 32.379 46.6634 32.9155 45.8961C33.1023 45.6162 33.2596 45.3178 33.385 45.0055C33.5016 44.725 33.6381 44.4532 33.7933 44.1921C34.7257 42.6938 36.2369 42.6423 37.4458 42.7613C38.0958 42.82 38.7508 42.7422 39.3689 42.533C39.987 42.3238 40.5546 41.9877 41.0353 41.5464C41.516 41.105 41.8992 40.5681 42.1603 39.9701C42.4214 39.372 42.5547 38.726 42.5516 38.0734C42.5474 37.8453 42.5292 37.6177 42.497 37.3918C42.4357 36.989 42.4357 36.5792 42.497 36.1764C42.6292 35.424 43.0205 34.7416 43.603 34.2473C43.9249 33.9969 44.2826 33.7964 44.6641 33.6525C44.8671 33.5685 45.0656 33.4741 45.2589 33.3695C45.8391 33.0385 46.3404 32.5855 46.7282 32.0416C47.455 31.0291 47.7551 29.7718 47.5642 28.5402C47.4756 27.9562 47.277 27.3944 46.979 26.8844C46.8633 26.6914 46.7315 26.5082 46.6028 26.3313C46.2946 25.9488 46.0592 25.5128 45.9084 25.0452C45.7089 24.3204 45.7669 23.5489 46.0723 22.8621C46.2319 22.5331 46.4271 22.2226 46.6543 21.9361C46.8463 21.6907 47.0153 21.428 47.1591 21.1516C47.4311 20.5869 47.5856 19.9728 47.6132 19.3466C47.6408 18.7204 47.541 18.0952 47.3198 17.5087C47.0864 16.8928 46.7316 16.3301 46.2765 15.854C45.8214 15.3779 45.2752 14.9981 44.6705 14.7371C43.2558 14.1262 42.4488 12.9977 42.452 11.6473C42.4567 11.3882 42.4749 11.1296 42.5066 10.8724C42.5523 10.5477 42.5663 10.2192 42.5484 9.89176C42.4895 9.19894 42.2799 8.52736 41.9343 7.92403C41.6052 7.35181 41.1591 6.85552 40.6249 6.46767C40.0908 6.07982 39.4808 5.80914 38.8348 5.67336C38.3475 5.59946 37.8528 5.5865 37.3622 5.63477C36.5616 5.67657 35.7353 5.72158 34.9347 5.25859C34.1341 4.79559 33.7579 4.04965 33.3946 3.32943C33.1899 2.86854 32.9262 2.43621 32.6101 2.04333C31.7927 1.12707 30.647 0.570007 29.4215 0.492963C28.196 0.41592 26.9896 0.825105 26.0638 1.63178C24.8324 2.59636 23.2441 2.52241 21.8101 1.42922C21.3057 1.04739 20.7289 0.772345 20.1147 0.620855C19.5006 0.469366 18.862 0.444613 18.238 0.548118C17.6139 0.651622 17.0175 0.881208 16.4852 1.22286C15.9528 1.56451 15.4957 2.01107 15.1416 2.53527C14.9695 2.80056 14.8251 3.08285 14.7108 3.37767C14.6111 3.60274 14.5114 3.83424 14.3893 4.0593C14.0146 4.71856 13.419 5.2242 12.7077 5.48688C12.1345 5.67947 11.5228 5.72805 10.9264 5.62835C10.2601 5.53345 9.58124 5.58284 8.9357 5.77315C8.29016 5.96347 7.69305 6.29028 7.18481 6.73145C6.67656 7.17262 6.26905 7.71784 5.98986 8.33022C5.71067 8.94258 5.56633 9.60779 5.5666 10.2808C5.57107 10.512 5.58824 10.7428 5.61805 10.9721C5.69198 11.4095 5.69198 11.8562 5.61805 12.2936C5.47573 12.9642 5.12722 13.5735 4.62132 14.0362C4.28037 14.3223 3.89333 14.5485 3.47669 14.705C3.2677 14.7982 3.07157 14.8851 2.87866 14.9912C2.33532 15.3106 1.86074 15.7346 1.48241 16.2387C1.10408 16.7428 0.829513 17.3169 0.674611 17.9278C0.519708 18.5388 0.48755 19.1744 0.579992 19.7978C0.672434 20.4213 0.887648 21.0202 1.21316 21.5599C1.31605 21.7271 1.42858 21.8814 1.53469 22.0358C1.84167 22.4182 2.07498 22.8543 2.22274 23.3219C2.44027 24.1334 2.33903 24.9973 1.9398 25.7365C1.80058 25.9813 1.6437 26.2155 1.47038 26.4374C0.856541 27.2074 0.517098 28.1601 0.505802 29.1447C0.479672 30.3896 0.941217 31.5953 1.7919 32.5046C2.21888 32.9129 2.71684 33.2398 3.26127 33.4692C3.90026 33.737 4.47467 34.1382 4.94606 34.646C5.68557 35.543 5.63734 36.469 5.58911 37.3629C5.55858 37.7653 5.55858 38.1694 5.58911 38.5718C5.66156 39.2376 5.87441 39.8805 6.2136 40.458C6.55279 41.0355 7.01061 41.5345 7.55684 41.9221C8.52142 42.6037 9.58567 42.832 11.1451 42.6809C11.8571 42.5986 12.5765 42.7497 13.1952 43.1115C13.8139 43.4734 14.2984 44.0263 14.5757 44.6872C15.1834 46.0601 15.9165 46.8897 16.9582 47.3848C17.5277 47.661 18.1471 47.8191 18.7793 47.8495C19.4114 47.8799 20.0432 47.782 20.6365 47.5616C21.0633 47.38 21.4696 47.1537 21.8486 46.8864C22.4981 46.4685 23.1765 46.0248 24.0768 46.0248ZM24.0447 44.4171C12.9392 44.4171 3.90432 35.334 3.90432 24.161C3.90432 12.988 12.9392 3.90497 24.0447 3.90497C35.1501 3.90497 44.185 12.988 44.185 24.161C44.185 35.334 35.1501 44.43 24.0447 44.43V44.4171ZM24.0447 4.40655C13.206 4.40655 4.38982 13.271 4.38982 24.1675C4.38982 35.064 13.206 43.9284 24.0447 43.9284C34.8833 43.9284 43.6995 35.064 43.6995 24.1675C43.6995 13.271 34.8833 4.41941 24.0447 4.41941V4.40655Z" fill="url(#paint3_linear_1_7360)"/>
<path d="M24.3527 2.69296C24.4382 2.76514 24.5005 2.86106 24.5315 2.9686C24.5625 3.07614 24.5609 3.19046 24.527 3.29711C24.493 3.40376 24.4282 3.49795 24.3407 3.56777C24.2533 3.63758 24.147 3.67988 24.0355 3.68932C23.924 3.69877 23.8122 3.67493 23.7142 3.62082C23.6162 3.56671 23.5365 3.48476 23.4851 3.38534C23.4337 3.28592 23.4129 3.17348 23.4254 3.06226C23.4379 2.95103 23.4831 2.84602 23.5553 2.76048C23.6521 2.6458 23.7905 2.57425 23.94 2.56159C24.0896 2.54893 24.238 2.59619 24.3527 2.69296Z" fill="#1B2233"/>
<path d="M24.3527 44.7999C24.4382 44.8721 24.5005 44.968 24.5315 45.0755C24.5625 45.1831 24.5609 45.2974 24.527 45.404C24.493 45.5107 24.4282 45.6049 24.3407 45.6747C24.2533 45.7445 24.147 45.7868 24.0355 45.7963C23.924 45.8057 23.8122 45.7819 23.7142 45.7277C23.6162 45.6736 23.5365 45.5917 23.4851 45.4923C23.4337 45.3929 23.4129 45.2804 23.4254 45.1692C23.4379 45.058 23.4831 44.9529 23.5553 44.8674C23.6521 44.7527 23.7905 44.6812 23.94 44.6685C24.0896 44.6559 24.238 44.7031 24.3527 44.7999Z" fill="#1B2233"/>
<path d="M3.41757 23.1742C3.53267 23.2721 3.60436 23.4116 3.61701 23.5622C3.62966 23.7127 3.58223 23.8622 3.48509 23.978C3.43764 24.0354 3.37927 24.0828 3.31337 24.1174C3.24747 24.1521 3.17534 24.1733 3.10117 24.1799C3.027 24.1865 2.95227 24.1783 2.88129 24.1558C2.81032 24.1332 2.74452 24.0969 2.68771 24.0487C2.57214 23.9512 2.49983 23.812 2.48658 23.6614C2.47333 23.5108 2.5202 23.3611 2.61697 23.2449C2.66471 23.1874 2.72335 23.1399 2.78953 23.1052C2.85571 23.0705 2.9281 23.0493 3.00253 23.0427C3.07697 23.0361 3.15196 23.0444 3.2232 23.0669C3.29443 23.0895 3.36049 23.1259 3.41757 23.1742Z" fill="#1B2233"/>
<path d="M3.98052 19.3286C4.06716 19.4008 4.13037 19.4972 4.1621 19.6055C4.19384 19.7138 4.19267 19.8291 4.15875 19.9367C4.12482 20.0443 4.05967 20.1394 3.97158 20.2099C3.88349 20.2804 3.77642 20.3231 3.66399 20.3327C3.55156 20.3422 3.43884 20.3181 3.34015 20.2634C3.24145 20.2087 3.16124 20.1259 3.10971 20.0255C3.05817 19.9251 3.03763 19.8117 3.05071 19.6996C3.06378 19.5876 3.10988 19.4819 3.18313 19.3961C3.23081 19.3389 3.28936 19.2918 3.35538 19.2574C3.42139 19.2231 3.49357 19.2021 3.56773 19.1959C3.64189 19.1896 3.71657 19.1981 3.78743 19.2208C3.85828 19.2436 3.92391 19.2802 3.98052 19.3286Z" fill="#1B2233"/>
<path d="M4.16852 28.2446C4.19212 28.3547 4.18254 28.4693 4.141 28.5739C4.09945 28.6786 4.0278 28.7685 3.93512 28.8324C3.84243 28.8964 3.73287 28.9313 3.6203 28.933C3.50773 28.9346 3.39721 28.9028 3.30271 28.8416C3.20822 28.7804 3.13399 28.6926 3.08944 28.5892C3.04488 28.4858 3.03199 28.3715 3.0524 28.2608C3.0728 28.1501 3.12558 28.0479 3.20406 27.9672C3.28255 27.8865 3.38321 27.8308 3.49331 27.8074C3.64075 27.7768 3.79431 27.8055 3.9207 27.8873C4.04709 27.9692 4.13613 28.0976 4.16852 28.2446Z" fill="#1B2233"/>
<path d="M5.92567 33.0899C5.9499 33.2 5.94091 33.3147 5.89985 33.4197C5.85879 33.5246 5.7875 33.615 5.69501 33.6794C5.60253 33.7437 5.493 33.7792 5.38034 33.7813C5.26767 33.7834 5.15693 33.7519 5.06214 33.691C4.96735 33.6301 4.89278 33.5424 4.84789 33.439C4.803 33.3357 4.7898 33.2213 4.80997 33.1104C4.83014 32.9996 4.88277 32.8972 4.96119 32.8163C5.03961 32.7353 5.14029 32.6795 5.25047 32.6559C5.32332 32.6398 5.39863 32.6383 5.47206 32.6514C5.54549 32.6646 5.6156 32.6921 5.67835 32.7325C5.7411 32.7728 5.79525 32.8251 5.8377 32.8865C5.88014 32.9478 5.91004 33.017 5.92567 33.0899Z" fill="#1B2233"/>
<path d="M8.9397 37.9676C8.9558 38.0407 8.95734 38.1162 8.94423 38.1898C8.93112 38.2635 8.90362 38.3338 8.86331 38.3968C8.82299 38.4598 8.77065 38.5143 8.70928 38.557C8.6479 38.5998 8.57871 38.63 8.50564 38.646C8.43299 38.6621 8.35788 38.6635 8.28466 38.6504C8.21143 38.6372 8.14156 38.6096 8.07906 38.5692C8.01657 38.5289 7.9627 38.4765 7.92057 38.4152C7.87845 38.3539 7.84891 38.2848 7.83365 38.212C7.8176 38.1394 7.81602 38.0643 7.82899 37.991C7.84196 37.9178 7.86922 37.8478 7.90923 37.7851C7.94924 37.7224 8.0012 37.6683 8.06215 37.6256C8.12311 37.583 8.19187 37.5528 8.26449 37.5368C8.33712 37.5207 8.41219 37.5191 8.48542 37.5321C8.55866 37.5451 8.62862 37.5723 8.69132 37.6124C8.75402 37.6524 8.80822 37.7043 8.85084 37.7653C8.89345 37.8262 8.92365 37.895 8.9397 37.9676Z" fill="#1B2233"/>
<path d="M13.2605 41.5719C13.2833 41.6812 13.2732 41.7948 13.2316 41.8984C13.1899 42.002 13.1185 42.091 13.0264 42.1541C12.9343 42.2173 12.8256 42.2517 12.7139 42.2532C12.6022 42.2546 12.4926 42.223 12.3989 42.1623C12.3052 42.1016 12.2315 42.0145 12.1872 41.9121C12.1428 41.8096 12.1298 41.6963 12.1497 41.5864C12.1696 41.4765 12.2216 41.375 12.2991 41.2946C12.3766 41.2142 12.4762 41.1585 12.5853 41.1346C12.7328 41.1031 12.8868 41.1315 13.0134 41.2135C13.14 41.2955 13.2289 41.4244 13.2605 41.5719Z" fill="#1B2233"/>
<path d="M18.4864 44.0478C18.5098 44.1571 18.5003 44.2709 18.4592 44.3748C18.418 44.4787 18.347 44.5681 18.255 44.6317C18.1631 44.6953 18.0544 44.7302 17.9427 44.7321C17.8309 44.734 17.7211 44.7028 17.6271 44.6424C17.533 44.5819 17.459 44.495 17.4143 44.3925C17.3697 44.2901 17.3563 44.1767 17.376 44.0666C17.3957 43.9566 17.4476 43.8549 17.525 43.7743C17.6025 43.6937 17.702 43.6378 17.8112 43.6137C17.9583 43.5822 18.1118 43.6101 18.2384 43.6915C18.3649 43.7728 18.4541 43.9009 18.4864 44.0478Z" fill="#1B2233"/>
<path d="M5.16892 15.2583C5.28402 15.3562 5.35571 15.4957 5.36836 15.6463C5.38101 15.7969 5.33359 15.9463 5.23644 16.0621C5.18876 16.1192 5.13022 16.1664 5.06421 16.2007C4.99819 16.2351 4.926 16.256 4.85184 16.2623C4.77768 16.2686 4.70301 16.2601 4.63216 16.2373C4.5613 16.2145 4.49566 16.1779 4.43905 16.1296C4.33239 16.0303 4.26791 15.8938 4.2589 15.7483C4.24989 15.6028 4.29704 15.4594 4.39064 15.3477C4.48423 15.236 4.61714 15.1644 4.76194 15.1478C4.90675 15.1311 5.05242 15.1707 5.16892 15.2583Z" fill="#1B2233"/>
<path d="M7.23833 11.58C7.32498 11.6523 7.38818 11.7487 7.41992 11.857C7.45165 11.9653 7.45047 12.0805 7.41655 12.1881C7.38263 12.2958 7.31749 12.3909 7.22939 12.4614C7.1413 12.5319 7.03423 12.5746 6.9218 12.5841C6.80937 12.5936 6.69666 12.5695 6.59796 12.5148C6.49927 12.4601 6.41905 12.3774 6.36751 12.277C6.31598 12.1766 6.29545 12.0632 6.30852 11.9511C6.3216 11.839 6.36769 11.7334 6.44095 11.6475C6.48862 11.5904 6.54716 11.5433 6.61318 11.5089C6.6792 11.4745 6.75138 11.4536 6.82554 11.4473C6.89971 11.441 6.97437 11.4495 7.04523 11.4723C7.11609 11.4951 7.18172 11.5317 7.23833 11.58Z" fill="#1B2233"/>
<path d="M9.74314 8.58347C9.85824 8.68139 9.92993 8.82087 9.94258 8.97146C9.95523 9.12205 9.90781 9.27152 9.81066 9.38728C9.76298 9.44443 9.70444 9.49156 9.63842 9.52593C9.57241 9.5603 9.50022 9.58124 9.42606 9.58751C9.3519 9.59379 9.27723 9.58529 9.20637 9.56251C9.13552 9.53973 9.06988 9.50313 9.01327 9.45481C8.90661 9.35547 8.84213 9.21898 8.83312 9.0735C8.82411 8.92803 8.87126 8.78464 8.96486 8.6729C9.05845 8.56117 9.19136 8.4896 9.33616 8.47296C9.48097 8.45632 9.62664 8.49587 9.74314 8.58347Z" fill="#1B2233"/>
<path d="M13.0621 5.80246C13.177 5.89982 13.2486 6.03875 13.2613 6.18881C13.2739 6.33887 13.2266 6.48784 13.1296 6.60306C13.0822 6.66045 13.0238 6.70784 12.9579 6.7425C12.892 6.77716 12.8199 6.7984 12.7457 6.80498C12.6715 6.81156 12.5968 6.80335 12.5258 6.78083C12.4549 6.75831 12.3891 6.72193 12.3322 6.6738C12.2167 6.57632 12.1444 6.43708 12.1311 6.28647C12.1179 6.13587 12.1647 5.98614 12.2615 5.86998C12.3095 5.81273 12.3683 5.76553 12.4346 5.73112C12.5009 5.69671 12.5733 5.67576 12.6477 5.66948C12.7222 5.66321 12.7971 5.67172 12.8682 5.69454C12.9393 5.71737 13.0052 5.75404 13.0621 5.80246Z" fill="#1B2233"/>
<path d="M16.7577 4.03691C16.8728 4.13484 16.9445 4.27432 16.9572 4.42491C16.9698 4.5755 16.9224 4.72497 16.8253 4.84073C16.7776 4.89788 16.719 4.945 16.653 4.97937C16.587 5.01374 16.5148 5.03467 16.4407 5.04095C16.3665 5.04723 16.2918 5.03874 16.221 5.01596C16.1501 4.99318 16.0845 4.95657 16.0279 4.90824C15.9661 4.86182 15.9145 4.80331 15.8761 4.73628C15.8377 4.66924 15.8133 4.5951 15.8045 4.51835C15.7957 4.4416 15.8026 4.36386 15.8248 4.28986C15.847 4.21587 15.884 4.14716 15.9336 4.08794C15.9832 4.02872 16.0444 3.98021 16.1133 3.94539C16.1823 3.91056 16.2576 3.89014 16.3347 3.88537C16.4118 3.88059 16.4891 3.89156 16.5618 3.91762C16.6345 3.94367 16.7012 3.98426 16.7577 4.03691Z" fill="#1B2233"/>
<path d="M20.557 3.02108C20.6439 3.09303 20.7075 3.18918 20.7396 3.29733C20.7718 3.40547 20.771 3.52072 20.7375 3.62845C20.704 3.73617 20.6393 3.83152 20.5515 3.90235C20.4636 3.97319 20.3568 4.01633 20.2444 4.0263C20.132 4.03627 20.0192 4.01262 19.9203 3.95834C19.8214 3.90407 19.7409 3.82162 19.6889 3.72148C19.637 3.62133 19.616 3.508 19.6286 3.39589C19.6412 3.28378 19.6868 3.17794 19.7597 3.09182C19.8071 3.03444 19.8655 2.98704 19.9314 2.95238C19.9973 2.91772 20.0694 2.89648 20.1436 2.8899C20.2177 2.88332 20.2925 2.89153 20.3635 2.91404C20.4344 2.93656 20.5002 2.97295 20.557 3.02108Z" fill="#1B2233"/>
<path d="M44.6702 23.1742C44.5551 23.2721 44.4834 23.4116 44.4708 23.5622C44.4581 23.7127 44.5055 23.8622 44.6027 23.978C44.6501 24.0354 44.7085 24.0828 44.7744 24.1174C44.8403 24.1521 44.9124 24.1733 44.9866 24.1799C45.0608 24.1865 45.1355 24.1783 45.2065 24.1558C45.2775 24.1332 45.3433 24.0969 45.4001 24.0487C45.5156 23.9512 45.5879 23.812 45.6012 23.6614C45.6145 23.5108 45.5676 23.3611 45.4708 23.2449C45.4231 23.1874 45.3644 23.1399 45.2982 23.1052C45.2321 23.0705 45.1597 23.0493 45.0852 23.0427C45.0108 23.0361 44.9358 23.0444 44.8646 23.0669C44.7933 23.0895 44.7273 23.1259 44.6702 23.1742Z" fill="#1B2233"/>
<path d="M44.1069 19.3291C44.0203 19.4013 43.9571 19.4977 43.9253 19.606C43.8936 19.7143 43.8947 19.8296 43.9287 19.9372C43.9626 20.0448 44.0278 20.1399 44.1158 20.2104C44.2039 20.2809 44.311 20.3236 44.4234 20.3331C44.5359 20.3427 44.6486 20.3185 44.7473 20.2639C44.846 20.2092 44.9262 20.1264 44.9777 20.026C45.0292 19.9256 45.0498 19.8122 45.0367 19.7001C45.0236 19.588 44.9776 19.4824 44.9043 19.3966C44.8566 19.3394 44.7981 19.2923 44.7321 19.2579C44.666 19.2236 44.5939 19.2026 44.5197 19.1963C44.4455 19.1901 44.3709 19.1986 44.3 19.2213C44.2291 19.2441 44.1635 19.2807 44.1069 19.3291Z" fill="#1B2233"/>
<path d="M43.9267 28.2446C43.9031 28.3547 43.9127 28.4693 43.9542 28.5739C43.9958 28.6786 44.0674 28.7685 44.1601 28.8324C44.2528 28.8964 44.3624 28.9313 44.4749 28.933C44.5875 28.9346 44.698 28.9028 44.7925 28.8416C44.887 28.7804 44.9612 28.6926 45.0058 28.5892C45.0503 28.4858 45.0632 28.3715 45.0428 28.2608C45.0224 28.1501 44.9696 28.0479 44.8912 27.9672C44.8127 27.8865 44.712 27.8308 44.6019 27.8074C44.4545 27.7768 44.3009 27.8055 44.1745 27.8873C44.0481 27.9692 43.9591 28.0976 43.9267 28.2446Z" fill="#1B2233"/>
<path d="M42.1617 33.0899C42.1375 33.2 42.1465 33.3147 42.1876 33.4197C42.2286 33.5246 42.2999 33.615 42.3924 33.6794C42.4849 33.7437 42.5944 33.7792 42.7071 33.7813C42.8197 33.7834 42.9305 33.7519 43.0253 33.691C43.1201 33.6301 43.1946 33.5424 43.2395 33.439C43.2844 33.3357 43.2976 33.2213 43.2774 33.1104C43.2573 32.9996 43.2046 32.8972 43.1262 32.8163C43.0478 32.7353 42.9471 32.6795 42.8369 32.6559C42.7641 32.6398 42.6888 32.6383 42.6154 32.6514C42.5419 32.6646 42.4718 32.6921 42.4091 32.7325C42.3463 32.7728 42.2922 32.8251 42.2497 32.8865C42.2073 32.9478 42.1774 33.017 42.1617 33.0899Z" fill="#1B2233"/>
<path d="M39.1461 37.9676C39.1301 38.0407 39.1285 38.1162 39.1416 38.1898C39.1547 38.2635 39.1822 38.3338 39.2225 38.3968C39.2628 38.4598 39.3152 38.5143 39.3766 38.557C39.4379 38.5998 39.5071 38.63 39.5802 38.646C39.6528 38.6621 39.728 38.6635 39.8012 38.6504C39.8744 38.6372 39.9443 38.6096 40.0068 38.5692C40.0693 38.5289 40.1231 38.4765 40.1653 38.4152C40.2074 38.3539 40.2369 38.2848 40.2522 38.212C40.2682 38.1394 40.2698 38.0643 40.2568 37.991C40.2439 37.9178 40.2166 37.8478 40.1766 37.7851C40.1366 37.7224 40.0846 37.6683 40.0237 37.6256C39.9627 37.583 39.894 37.5528 39.8213 37.5368C39.7487 37.5207 39.6736 37.5191 39.6004 37.5321C39.5272 37.5451 39.4572 37.5723 39.3945 37.6124C39.3318 37.6524 39.2776 37.7043 39.235 37.7653C39.1924 37.8262 39.1622 37.895 39.1461 37.9676Z" fill="#1B2233"/>
<path d="M34.8283 41.5719C34.8055 41.6812 34.8156 41.7948 34.8572 41.8984C34.8989 42.002 34.9703 42.091 35.0624 42.1541C35.1545 42.2173 35.2633 42.2517 35.3749 42.2532C35.4866 42.2546 35.5962 42.223 35.6899 42.1623C35.7836 42.1016 35.8573 42.0145 35.9016 41.9121C35.946 41.8096 35.959 41.6963 35.9391 41.5864C35.9192 41.4765 35.8672 41.375 35.7897 41.2946C35.7122 41.2142 35.6126 41.1585 35.5035 41.1346C35.356 41.1031 35.202 41.1315 35.0754 41.2135C34.9488 41.2955 34.8599 41.4244 34.8283 41.5719Z" fill="#1B2233"/>
<path d="M29.6024 44.0478C29.579 44.1571 29.5885 44.2709 29.6296 44.3748C29.6708 44.4787 29.7418 44.5681 29.8338 44.6317C29.9257 44.6953 30.0344 44.7302 30.1461 44.7321C30.2579 44.734 30.3677 44.7028 30.4617 44.6424C30.5558 44.5819 30.6298 44.495 30.6745 44.3925C30.7191 44.2901 30.7325 44.1767 30.7128 44.0666C30.6931 43.9566 30.6412 43.8549 30.5638 43.7743C30.4863 43.6937 30.3867 43.6378 30.2776 43.6137C30.1305 43.5822 29.977 43.6101 29.8504 43.6915C29.7239 43.7728 29.6347 43.9009 29.6024 44.0478Z" fill="#1B2233"/>
<path d="M42.9163 15.2581C42.8012 15.356 42.7295 15.4955 42.7169 15.6461C42.7042 15.7967 42.7516 15.9462 42.8488 16.0619C42.8965 16.1191 42.955 16.1662 43.021 16.2006C43.087 16.2349 43.1592 16.2559 43.2334 16.2621C43.3075 16.2684 43.3822 16.2599 43.4531 16.2372C43.5239 16.2144 43.5896 16.1778 43.6462 16.1294C43.7079 16.083 43.7596 16.0245 43.798 15.9575C43.8364 15.8904 43.8607 15.8163 43.8695 15.7395C43.8783 15.6628 43.8715 15.585 43.8493 15.5111C43.8271 15.4371 43.79 15.3684 43.7404 15.3091C43.6908 15.2499 43.6297 15.2014 43.5607 15.1666C43.4918 15.1318 43.4164 15.1113 43.3393 15.1066C43.2622 15.1018 43.185 15.1128 43.1122 15.1388C43.0395 15.1649 42.9728 15.2055 42.9163 15.2581Z" fill="#1B2233"/>
<path d="M40.8491 11.58C40.7624 11.6523 40.6992 11.7487 40.6675 11.857C40.6358 11.9653 40.6369 12.0805 40.6709 12.1881C40.7048 12.2958 40.7699 12.3909 40.858 12.4614C40.9461 12.5319 41.0532 12.5746 41.1656 12.5841C41.2781 12.5936 41.3908 12.5695 41.4895 12.5148C41.5882 12.4601 41.6684 12.3774 41.7199 12.277C41.7715 12.1766 41.792 12.0632 41.7789 11.9511C41.7658 11.839 41.7197 11.7334 41.6465 11.6475C41.5988 11.5904 41.5403 11.5433 41.4742 11.5089C41.4082 11.4745 41.336 11.4536 41.2619 11.4473C41.1877 11.441 41.113 11.4495 41.0422 11.4723C40.9713 11.4951 40.9057 11.5317 40.8491 11.58Z" fill="#1B2233"/>
<path d="M38.3421 8.58329C38.227 8.68122 38.1553 8.82069 38.1426 8.97128C38.13 9.12187 38.1774 9.27135 38.2745 9.3871C38.3222 9.44426 38.3808 9.49139 38.4468 9.52576C38.5128 9.56013 38.585 9.58106 38.6591 9.58734C38.7333 9.59362 38.808 9.58512 38.8788 9.56234C38.9497 9.53956 39.0153 9.50295 39.0719 9.45463C39.1337 9.4082 39.1853 9.34969 39.2237 9.28265C39.2621 9.21562 39.2865 9.14147 39.2953 9.06472C39.3041 8.98798 39.2972 8.91024 39.275 8.83625C39.2528 8.76225 39.2158 8.69355 39.1662 8.63432C39.1166 8.5751 39.0554 8.5266 38.9865 8.49177C38.9175 8.45695 38.8422 8.43653 38.7651 8.43175C38.688 8.42698 38.6107 8.43795 38.538 8.464C38.4653 8.49006 38.3986 8.53064 38.3421 8.58329Z" fill="#1B2233"/>
<path d="M35.0137 5.80246C34.8988 5.89982 34.8272 6.03875 34.8145 6.18881C34.8019 6.33887 34.8492 6.48784 34.9462 6.60306C34.9936 6.66045 35.052 6.70784 35.1179 6.7425C35.1838 6.77716 35.2559 6.7984 35.3301 6.80498C35.4042 6.81156 35.479 6.80335 35.55 6.78083C35.6209 6.75831 35.6867 6.72193 35.7435 6.6738C35.8591 6.57632 35.9314 6.43708 35.9447 6.28647C35.9579 6.13587 35.911 5.98614 35.8143 5.86998C35.7663 5.81273 35.7075 5.76553 35.6412 5.73112C35.5749 5.69671 35.5025 5.67576 35.428 5.66948C35.3536 5.66321 35.2787 5.67172 35.2076 5.69454C35.1365 5.71737 35.0706 5.75404 35.0137 5.80246Z" fill="#1B2233"/>
<path d="M31.3265 4.03691C31.2114 4.13484 31.1397 4.27432 31.127 4.42491C31.1144 4.5755 31.1618 4.72497 31.2589 4.84073C31.3066 4.89788 31.3652 4.945 31.4312 4.97937C31.4972 5.01374 31.5694 5.03467 31.6435 5.04095C31.7177 5.04723 31.7924 5.03874 31.8632 5.01596C31.9341 4.99318 31.9997 4.95657 32.0563 4.90824C32.1181 4.86182 32.1697 4.80331 32.2081 4.73628C32.2465 4.66924 32.2709 4.5951 32.2797 4.51835C32.2885 4.4416 32.2816 4.36386 32.2594 4.28986C32.2372 4.21587 32.2002 4.14716 32.1506 4.08794C32.101 4.02872 32.0398 3.98021 31.9709 3.94539C31.9019 3.91056 31.8266 3.89014 31.7495 3.88537C31.6724 3.88059 31.5951 3.89156 31.5224 3.91762C31.4497 3.94367 31.383 3.98426 31.3265 4.03691Z" fill="#1B2233"/>
<path d="M27.5304 3.02108C27.4435 3.09303 27.3799 3.18918 27.3478 3.29733C27.3157 3.40547 27.3164 3.52072 27.3499 3.62845C27.3834 3.73617 27.4482 3.83152 27.536 3.90235C27.6238 3.97319 27.7307 4.01633 27.843 4.0263C27.9554 4.03627 28.0682 4.01262 28.1671 3.95834C28.266 3.90407 28.3466 3.82162 28.3985 3.72148C28.4504 3.62133 28.4715 3.508 28.4589 3.39589C28.4463 3.28378 28.4006 3.17794 28.3278 3.09182C28.2803 3.03444 28.2219 2.98704 28.156 2.95238C28.0901 2.91772 28.018 2.89648 27.9438 2.8899C27.8697 2.88332 27.7949 2.89153 27.724 2.91404C27.653 2.93656 27.5872 2.97295 27.5304 3.02108Z" fill="#1B2233"/>
<path d="M24.0917 30.712L31.702 35.3368L29.6825 26.6203L36.4062 20.7556L27.5521 19.9993L24.0917 11.7788L20.6314 19.9993L11.7773 20.7556L18.501 26.6203L16.4814 35.3368L24.0917 30.712Z" fill="url(#paint4_linear_1_7360)"/>
<defs>
<linearGradient id="paint0_linear_1_7360" x1="24.0444" y1="4.1748" x2="24.0444" y2="44.1854" gradientUnits="userSpaceOnUse">
<stop stop-color="white"/>
<stop offset="0.526042" stop-color="#F8F8F8"/>
<stop offset="1" stop-color="white"/>
</linearGradient>
<linearGradient id="paint1_linear_1_7360" x1="0.241432" y1="24.1806" x2="47.8464" y2="24.1806" gradientUnits="userSpaceOnUse">
<stop stop-color="#BA973B"/>
<stop offset="0.12" stop-color="#A57D24"/>
<stop offset="0.26" stop-color="#F1DD80"/>
<stop offset="0.37" stop-color="#F1DD80"/>
<stop offset="0.47" stop-color="#DABF64"/>
<stop offset="0.6" stop-color="#C3A348"/>
<stop offset="0.73" stop-color="#B28E34"/>
<stop offset="0.85" stop-color="#A88128"/>
<stop offset="0.97" stop-color="#A57D24"/>
</linearGradient>
<linearGradient id="paint2_linear_1_7360" x1="6.08078" y1="24.1802" x2="42.008" y2="24.1802" gradientUnits="userSpaceOnUse">
<stop stop-color="#BA973B"/>
<stop offset="0.12" stop-color="#A57D24"/>
<stop offset="0.26" stop-color="#F1DD80"/>
<stop offset="0.37" stop-color="#F1DD80"/>
<stop offset="0.47" stop-color="#DABF64"/>
<stop offset="0.6" stop-color="#C3A348"/>
<stop offset="0.73" stop-color="#B28E34"/>
<stop offset="0.85" stop-color="#A88128"/>
<stop offset="0.97" stop-color="#A57D24"/>
</linearGradient>
<linearGradient id="paint3_linear_1_7360" x1="0.00100536" y1="24.1803" x2="48.0883" y2="24.1803" gradientUnits="userSpaceOnUse">
<stop offset="0.03" stop-color="#A57D24"/>
<stop offset="0.15" stop-color="#A88128"/>
<stop offset="0.27" stop-color="#B28E34"/>
<stop offset="0.4" stop-color="#C3A348"/>
<stop offset="0.53" stop-color="#DABF64"/>
<stop offset="0.63" stop-color="#F1DD80"/>
<stop offset="0.74" stop-color="#F1DD80"/>
<stop offset="0.88" stop-color="#A57D24"/>
<stop offset="1" stop-color="#BA973B"/>
</linearGradient>
<linearGradient id="paint4_linear_1_7360" x1="24.0917" y1="11.7788" x2="24.0917" y2="35.3368" gradientUnits="userSpaceOnUse">
<stop offset="0.119792" stop-color="#C3A348"/>
<stop offset="0.505208" stop-color="#ECD775"/>
<stop offset="0.786458" stop-color="#DABF64"/>
</linearGradient>
</defs>
</svg>
