<svg width="25" height="29" viewBox="0 0 25 29" fill="none" xmlns="http://www.w3.org/2000/svg">
<path d="M21.678 6.20134C21.486 6.10011 21.2991 5.98914 21.118 5.86885C20.5918 5.51409 20.1093 5.09613 19.6809 4.62394C18.6078 3.37259 18.2072 2.1032 18.0605 1.21527H18.0656C17.943 0.476828 17.9936 0 18.0024 0H13.1173V19.2574C13.1173 19.5152 13.1173 19.7716 13.1071 20.0242C13.1071 20.0551 13.1033 20.0835 13.1021 20.1183C13.1021 20.1312 13.1021 20.1466 13.0983 20.1608V20.1724C13.047 20.8632 12.83 21.5305 12.4663 22.1157C12.1026 22.7009 11.6035 23.1859 11.0128 23.5282C10.3965 23.8857 9.69948 24.0732 8.99047 24.0721C6.71537 24.0721 4.87001 22.1802 4.87001 19.8438C4.87001 17.506 6.71537 15.6142 8.99047 15.6142C9.42148 15.6142 9.84995 15.6838 10.2595 15.8204L10.2658 10.748C9.02209 10.5844 7.75862 10.6854 6.55515 11.0447C5.35168 11.4041 4.23433 12.0139 3.27365 12.8357C2.43168 13.5813 1.72378 14.471 1.18182 15.4647C0.975794 15.8268 0.197204 17.2844 0.103672 19.6479C0.0442664 20.9882 0.439881 22.38 0.628209 22.9535V22.9664C0.745756 23.304 1.20583 24.4587 1.95409 25.4317C2.55749 26.2127 3.27042 26.8987 4.06993 27.4679V27.455L4.08131 27.4679C6.44489 29.1045 9.06757 28.9976 9.06757 28.9976C9.52133 28.9783 11.0419 28.9976 12.7684 28.1638C14.6833 27.2385 15.7728 25.8608 15.7728 25.8608C16.4694 25.0375 17.0233 24.0992 17.4109 23.0862C17.8533 21.9006 17.9999 20.4804 17.9999 19.9134V9.69507C18.0593 9.73116 18.8492 10.2634 18.8492 10.2634C18.8492 10.2634 19.9868 11.007 21.7601 11.4903C23.0316 11.8344 24.7468 11.9078 24.7468 11.9078V6.96298C24.1464 7.02999 22.9267 6.83668 21.6767 6.20263L21.678 6.20134Z" fill="black"/>
</svg>
