<svg width="30" height="29" viewBox="0 0 30 29" fill="none" xmlns="http://www.w3.org/2000/svg">
<path d="M27.1233 6.70585C22.7854 -0.000221679 13.9288 -1.99392 7.06047 2.17472C0.372882 6.34336 -1.79607 15.4056 2.54183 22.1117L2.90332 22.6554L1.45736 28.0928L6.87973 26.6428L7.42197 27.0053C9.77166 28.274 12.3021 28.999 14.8325 28.999C17.5437 28.999 20.2549 28.274 22.6046 26.8241C29.2922 22.4742 31.2804 13.5932 27.1233 6.70585ZM23.3276 20.6617C22.6046 21.7492 21.7009 22.4742 20.4357 22.6554C19.7127 22.6554 18.8089 23.0179 15.194 21.568C12.1214 20.118 9.59092 17.7618 7.78346 15.0431C6.69898 13.7744 6.15675 12.1432 5.976 10.512C5.976 9.06204 6.51824 7.79332 7.42197 6.8871C7.78346 6.52461 8.14495 6.34336 8.50644 6.34336H9.41017C9.77166 6.34336 10.1332 6.34336 10.3139 7.06834C10.6754 7.97457 11.5791 10.1495 11.5791 10.3308C11.7599 10.512 11.7599 10.8745 11.5791 11.0557C11.7599 11.4182 11.5791 11.7807 11.3984 11.962C11.2176 12.1432 11.0369 12.5057 10.8561 12.6869C10.4946 12.8682 10.3139 13.2307 10.4946 13.5932C11.2176 14.6806 12.1214 15.7681 13.0251 16.6743C14.1096 17.5806 15.194 18.3055 16.4593 18.8493C16.8207 19.0305 17.1822 19.0305 17.363 18.668C17.5437 18.3055 18.4475 17.3993 18.8089 17.0368C19.1704 16.6743 19.3512 16.6743 19.7127 16.8556L22.6046 18.3055C22.9661 18.4868 23.3276 18.668 23.5083 18.8493C23.6891 19.393 23.6891 20.118 23.3276 20.6617Z" fill="black"/>
</svg>
